<?xml version="1.0" encoding="UTF-8"?>
<!-- Created with Inkscape (http://www.inkscape.org/) -->
<svg width="45" height="45" version="1.1" xmlns="http://www.w3.org/2000/svg" xmlns:cc="http://creativecommons.org/ns#" xmlns:dc="http://purl.org/dc/elements/1.1/" xmlns:rdf="http://www.w3.org/1999/02/22-rdf-syntax-ns#">
<metadata>
<rdf:RDF>
<cc:Work rdf:about="">
<dc:format>image/svg+xml</dc:format>
<dc:type rdf:resource="http://purl.org/dc/dcmitype/StillImage"/>
<dc:title/>
</cc:Work>
</rdf:RDF>
</metadata>
<path d="m4.5e-8 22.5v-22.5h45v45h-45z" fill="#808080" fill-opacity=".50196"/>
<path d="m22.066 12.715c-3.6302 0.2471-5.5178 1.9584-6.9805 4.3164-1.3618 2.1954-1.416 5.3582-0.36719 7.7422 0.78622 1.7949 2.5366 2.7908 3.9219 4.0547 1.4968 1.6561-0.18996 4.034-2.1445 4.1992-1.9331 0.16633-3.796 0.96137-5.1875 2.3223-0.69361 0.8852-1.627 1.8393-1.627 4.2734v7.377h25.637v-7.377c0-2.4342-0.93333-3.3882-1.627-4.2734-1.3915-1.3609-3.2563-2.1559-5.1895-2.3223-1.9546-0.16517-3.6395-2.5432-2.1426-4.1992 1.3853-1.2639 3.1356-2.2598 3.9219-4.0547 1.0488-2.3839 0.9927-5.5468-0.36914-7.7422-1.4627-2.358-3.3482-4.0693-6.9785-4.3164z" fill="#fafafa"/>
</svg>
