<?xml version="1.0" encoding="UTF-8"?>
<!-- Created with Inkscape (http://www.inkscape.org/) -->
<svg width="45" height="45" version="1.1" xmlns="http://www.w3.org/2000/svg" xmlns:cc="http://creativecommons.org/ns#" xmlns:dc="http://purl.org/dc/elements/1.1/" xmlns:rdf="http://www.w3.org/1999/02/22-rdf-syntax-ns#">
<metadata>
<rdf:RDF>
<cc:Work rdf:about="">
<dc:format>image/svg+xml</dc:format>
<dc:type rdf:resource="http://purl.org/dc/dcmitype/StillImage"/>
<dc:title/>
</cc:Work>
</rdf:RDF>
</metadata>
<path d="m4.5e-8 22.5v-22.5h45v45h-45z" fill="#808080" fill-opacity=".50196"/>
<path d="m21.002 14.5 0.60575 10.298 1.8172 0.14789 0.60575-9.8398zm1.493 12.81c-0.22614 0-0.43745 0.04179-0.63531 0.12659-0.19788 0.0848-0.36739 0.19821-0.50873 0.33955s-0.25475 0.31086-0.33955 0.50873c-0.07774 0.19788-0.11713 0.4056-0.11713 0.62465 0 0.22614 0.03939 0.43864 0.11713 0.63652 0.0848 0.19081 0.19821 0.35674 0.33955 0.49808s0.31086 0.25117 0.50873 0.3289c0.19788 0.0848 0.40918 0.12659 0.63531 0.12659 0.22614 1e-6 0.43505-0.04179 0.62586-0.12659 0.19788-0.07774 0.36739-0.18756 0.50873-0.3289 0.14841-0.14134 0.26539-0.30727 0.3502-0.49808 0.0848-0.19788 0.12659-0.41036 0.12659-0.63652 0-0.21908-0.04178-0.4268-0.12659-0.62465-0.0848-0.19788-0.20179-0.36739-0.3502-0.50873-0.14134-0.14134-0.31086-0.25475-0.50873-0.33955-0.19081-0.0848-0.39972-0.12659-0.62586-0.12659z" fill="#fafafa" stroke-width=".60575"/>
</svg>
