<?xml version="1.0" encoding="UTF-8" standalone="no"?>
<!-- Created with Inkscape (http://www.inkscape.org/) -->
<svg xmlns:rdf="http://www.w3.org/1999/02/22-rdf-syntax-ns#" xmlns="http://www.w3.org/2000/svg" height="45" width="45" version="1.1" xmlns:cc="http://creativecommons.org/ns#" xmlns:dc="http://purl.org/dc/elements/1.1/">
<metadata>
<rdf:RDF>
<cc:Work rdf:about="">
<dc:format>image/svg+xml</dc:format>
<dc:type rdf:resource="http://purl.org/dc/dcmitype/StillImage"/>
<dc:title/>
</cc:Work>
</rdf:RDF>
</metadata>
<path d="m4.5e-8 22.5v-22.5h22.5 22.5v22.5 22.5h-22.5-22.5z" fill-opacity=".19608"/>
<path d="m27 31.895v-4.8h4.8c5.2184 0 7.2-1.2385 7.2-4.5s-1.9816-4.5-7.2-4.5h-4.8v-4.8c0-5.2184-1.2385-7.2-4.5-7.2s-4.5 1.9816-4.5 7.2v4.8h-4.8c-5.2184 0-7.2 1.2385-7.2 4.5s1.9816 4.5 7.2 4.5h4.8v4.8c0 5.2184 1.2862 7.0093 4.5477 7.0093 3.395-0.01844 4.4294-2.102 4.4523-7.0093z" fill="#fff"/>
</svg>
