<?xml version="1.0" encoding="UTF-8" standalone="no"?>
<svg xmlns:rdf="http://www.w3.org/1999/02/22-rdf-syntax-ns#" xmlns="http://www.w3.org/2000/svg" enable-background="" xml:space="preserve" height="512" viewBox="0 0 512 512" width="512" version="1.1" y="0px" x="0px" xmlns:cc="http://creativecommons.org/ns#" xmlns:dc="http://purl.org/dc/elements/1.1/"><metadata><rdf:RDF><cc:Work rdf:about=""><dc:format>image/svg+xml</dc:format><dc:type rdf:resource="http://purl.org/dc/dcmitype/StillImage"/><dc:title/></cc:Work></rdf:RDF></metadata><g fill="#41a7fa"><path d="m288.22 252-95.907 132h116.62l17.422-23.996h-86.738l21.806-30h39.584l17.42-24h-39.57l21.795-30h138.23c8.2843 0 15 6.7157 15 15s-6.7157 15-15 15h-58.48l-3.3808 4.6636-0.005 73.34h24v-54l23.75-0.008 29 54h27.25l-30-55.996s0.04-0.10299 0.041-0.10547c15.989-5.2291 26.812-20.135 26.834-36.957-0.03-20.48-15.91-37.57-36.35-38.94z"/><path d="m481 46c0-17.269-11.177-27-29-27h-392c-19.42 0-29 9.74-29 27v168c0 17.612 9.7167 26 29 26h109v121l87.912-121h195.09c17.586 0 29.063-8.4318 29-26zm-394 149h-24l0.0015-131h23.999l0.000012 51.945h45v-51.945l24-0.00004-0.00074 82.965-24 33.04v-40h-45zm362 0h-24.002l0.00074-55h-45l-0.00073 55h-23.998l0.00073-106.89-52-0.22592c-11.977 0-18.734 2.3954-19.464 10.953-0.72997 8.5578 6.8814 12.022 22.654 18.423 21.599 8.5353 31.74 20.572 31.74 39.001 0 21.918-15.401 38.735-48.93 38.735h-47.669l-24.331 33.625v-33.625h-20l17.433-24h2.5663v-43.5l-57.031 78.5h-29.969l111-152.78 0.22485 117.78h52.676c12.677-0.22593 19.047-4.1336 19.745-12.605 0.69761-8.471-5.8048-12.812-20.501-18.438-20.296-7.5494-33.545-19.595-33.545-38.601 0-22.321 13.498-37.356 42.324-37.356h77.078l-0.00074 52h45l0.00074-52h23.998z"/><path d="m85.982 252c-30.982 0-54.982-0.0123-54.982 26.571v80.857c0 24.575 24 24.571 54.982 24.571 30.018 0 54.018 0.003 54.018-26.561v-78.878c0-26.58-24-26.56-54.018-26.56zm30.018 96c-0.0731 12-12 11.997-30.018 11.997s-30.982 0.003-30.982-11.997v-60c0-12 13-12.094 31-12 18 0.09 30 0 30 12z"/><path d="m365 327.18-50 68.816h-131.4l-43.595 60v-70l-12 10h-86l-11-8-0.000046 14.918 7 5.082h90l-0.10547 86 61.518-86h132l31.588-43.469v52.194l12-8.7255h109l7-5.0853v-6.9147h-116z"/></g></svg>
