<?xml version="1.0" encoding="UTF-8" standalone="no"?>
<!-- Created with Inkscape (http://www.inkscape.org/) -->
<svg xmlns:rdf="http://www.w3.org/1999/02/22-rdf-syntax-ns#" xmlns="http://www.w3.org/2000/svg" height="273" width="28" version="1.1" xmlns:cc="http://creativecommons.org/ns#" xmlns:dc="http://purl.org/dc/elements/1.1/">
	<metadata>
		<rdf:RDF>
			<cc:Work rdf:about="">
				<dc:format>image/svg+xml</dc:format>
				<dc:type rdf:resource="http://purl.org/dc/dcmitype/StillImage"/>
				<dc:title/>
			</cc:Work>
		</rdf:RDF>
	</metadata>
	<g fill-opacity="0.50196078" fill="#000" transform="matrix(0.99856111,0,0,1.0015231,6.0115055,-2.0002017)">
		<g fill-opacity="0.50196078" fill="#000" transform="matrix(2.0773188,0,0,2.0773188,-1.2112294,-1.2112255)">
			<g transform="matrix(0.01284033,0,0,0.01246332,0.5820922,31.211196)">
				<path d="m15.688,62c-1.1725,0.000012-2.2434,0.18605-3.25,0.53125-1.0066,0.34522-1.9432,0.86095-2.8125,1.5625-0.85791,0.696-1.5958,1.4876-2.1562,2.4062-0.5605,0.91872-0.93891,1.931-1.1562,3-0.21162,1.069-0.22571,2.0445-0.03125,2.9688,0.19446,0.91871,0.57859,1.7471,1.1562,2.4375,0.58909,0.70156,1.3353,1.2117,2.1875,1.5625,0.8579,0.35078,1.8279,0.53125,2.9375,0.53125,0.82358-0.000003,1.6592-0.1099,2.5-0.34375,0.84074-0.23386,1.6764-0.5948,2.5-1.0625l-0.344-0.78c-0.66346,0.37305-1.3392,0.65444-2.0312,0.84375-0.68634,0.18931-1.3647,0.28125-2.0625,0.28125-0.93227-0.000002-1.7679-0.16036-2.5-0.5-0.72637-0.33964-1.3321-0.83742-1.8125-1.5-0.39464-0.56236-0.65543-1.2372-0.78125-2-0.12583-0.76837-0.10908-1.5745,0.0625-2.4375,0.21733-1.0969,0.6323-2.1181,1.25-3.0312,0.62341-0.91313,1.4115-1.6598,2.3438-2.25,0.61197-0.38418,1.2512-0.68011,1.9375-0.875,0.68632-0.19487,1.4127-0.28124,2.1562-0.28125,0.8007,0.000011,1.524,0.10991,2.1875,0.34375,0.66344,0.23386,1.2216,0.56571,1.6562,1,0.54333,0.53453,0.91071,1.1298,1.0938,1.7812,0.183,0.65146,0.19138,1.3913,0.03125,2.1875-0.19448,0.97996-0.57861,1.7861-1.1562,2.4375-0.57195,0.65145-1.2926,1.0954-2.1562,1.3125l1.2188-6.2188h-1.875l-0.21875,1.0625c-0.17159-0.39532-0.41522-0.69466-0.78125-0.90625-0.36605-0.21157-0.82902-0.34374-1.3438-0.34375-1.0924,0.000008-2.0206,0.36311-2.7812,1.0312-0.75496,0.66259-1.2343,1.5752-1.4688,2.75s-0.11687,2.0819,0.375,2.75c0.49186,0.66815,1.2826,1,2.375,1,0.51474,0.000001,0.99138-0.10092,1.4375-0.3125,0.45182-0.21158,0.85576-0.50536,1.1875-0.90625l-0.25,1.2188h0.28125c1.6243,0.000001,2.9617-0.42379,4.0312-1.2812,1.0752-0.85746,1.7849-2.057,2.0938-3.5938,0.19444-0.96881,0.16054-1.8343-0.0625-2.625-0.21735-0.79064-0.64641-1.507-1.2812-2.125-0.54908-0.54565-1.2165-0.95148-2-1.2188-0.78-0.274-1.671-0.407-2.689-0.407zm-1,4.7812c0.57765,0.000007,0.9869,0.24764,1.25,0.6875,0.2688,0.4343,0.33047,1.0005,0.1875,1.7188l-0.126,0.625c-0.14872,0.72383-0.43462,1.3157-0.875,1.75-0.4404,0.42873-0.9536,0.625-1.5312,0.625-0.56623,0.000002-0.9671-0.22877-1.2188-0.71875-0.246-0.489-0.291-1.144-0.125-1.968,0.16586-0.82405,0.46585-1.4843,0.90625-1.9688,0.4461-0.48997,0.96502-0.74999,1.5312-0.75z" fill-opacity="0.50196078" transform="matrix(37.544473,0,0,38.565781,-225.62239,-2380.3218)" fill="#000"/>
			</g>
			<g transform="matrix(0.01292968,0,0,0.01285077,-1.0527844,-0.10394579)">
				<g fill-opacity="0.50196078" fill="#000" transform="translate(4.0406097,39.395949)">
					<path fill-opacity="0.50196078" fill="#000" d="m203.01,949.15c-11.13-40.306-3.8426-82.626-6.0654-123.88-1.4983-26.687,6.6011-54.824,28.413-71.789,23.293-22.854,54.511-36.209,86.87-39.003,32.72-2.7737,60.943-42.68,35.886-70.491-23.189-21.225-52.49-37.979-65.652-68.122-17.557-40.034-14.417-86.384-4.3082-127.91,22.258-65.723,95.91-106.75,163.74-95.37,63.882,7.1049,123.64,61.375,126.56,127.57,6.5238,46.807,0.27506,101.39-39.258,132.77-25.641,18.822-64.794,48.27-36.395,82.419,23.57,27.101,65.209,16.749,93.696,36.581,30.761,17.107,60.168,47.495,56.737,85.413-0.25399,43.923,3.7753,88.283-4.0938,131.8-145.38-0.00048-290.75-0.01-436.13,0.002z"/>
				</g>
			</g>
			<g transform="matrix(0.01288954,0,0,0.01249661,-1.0367626,13.114783)">
				<path fill-opacity="0.50196078" fill="#000" d="m483.06,443.04c-59.872,36.673-86.352,108.59-69.48,174.34l-288.34,166.47,101.01,174.96,67.583-39.019-58.15-100.72,58.252-33.632,58.15,100.72,67.532-38.99-58.15-100.72,94.969-54.83c49.432,48.396,126.91,61.022,189.23,25.039,75.106-43.362,100.16-141.12,56.644-216.49-43.513-75.367-140.67-102.5-215.78-59.139-1.1735,0.67752-2.3303,1.3067-3.48,2.0092zm45.411,70.617c35.177-20.309,80.034-8.2514,101.22,28.443,21.186,36.695,9.2286,81.622-25.948,101.93-35.177,20.309-80.013,8.1719-101.2-28.523-21.186-36.695-9.2499-81.542,25.927-101.85z"/>
			</g>
			<g transform="matrix(0.0110648,0,0,0.01095841,-5.5262121,37.824024)">
				<g fill="#000" fill-opacity="0.50196078">
					<path fill-opacity="0.50196078" fill="#000" d="m913.14,549.2-0.75115,0.0809,0.75115-0.0809zm-11.193,1.6042c-20.965,1.8024-56.702-2.6369-66.792,14.984,19.075-12.069,48.287-12.136,66.792-14.984zm-57.312,1.7135-0.875,0.18229,0.875-0.18229zm-19.068,6.6719c-145.38,30.299-261.47,162.43-272.27,310.63-14.28,138.86,64.483,280.67,189.38,342.68,21.904,16.02-11.136-24.602-7.1827-38.079-24.494-18.677-44.058-41.54-57.878-69.508-11.624-21.115,1.6695-34.01,12.786-48.555,1.9349-31.979-34.799-20.308-35.789-54.015-13.625-32.88-41.107-56.331-50.948-91.521-0.87907-33.857,4.4822-69.504,9.9328-103.35-8.4456,10.895-14.444,68.149-15.493,54.209,1.6646-33.965,14.27-65.602,25.379-97.682,3.2408-21.166,46.95-52.232,42.031-44.173,11.223-7.7781,21.556-30.413,29.714-38.318,12.234-7.8608,23.881-20.838,31.609-33.76,12.669-8.0994,7.173-24.585,15.569-23.361-16.368-3.9391-13.301-21.069-1.8326-9.3825,11.318-16.353,28.31-13.663,35.247-11.376,18.938-17.356-2.3021,13.254,18.552-2.873,23.407,9.723-32.686,34.265-12.047,49.102-2.9793,17.347-12.985,38.67,1.3868,35.334,6.2265,23.727,15.576,4.9514,28.656,1.8958-14.495,15.995-7.362,25.858,6.1926,19.012-6.8722,19.715-25.719,3.991-33.907,16.389-9.9728-10.573-5.9617,7.4491-21.778,6.3855-24.512,19.438,10.576,45.054-2.0076,68.533,10.238,5.1199,10.215-23.824,25.97-22.075-1.9637-33.085,38.818-32.653,26.872-7.7849-0.98471,19.231,24.378-9.7212,16.567,14.088-0.11971,18.21,8.9717,20.775,13.403,34.99-7.9064,19.744-56.747-0.89338-59.983,16.947,11.865-13.005,28.001,1.9514,16.628,3.3104-2.6038,16.884,25.456,20.529-4.8006,23.673-13.959-1.3367,20.288-11.325-1.8971-9.2614-23.747,3.9283-33.829,22.93-40.468,15.168-8.1349,4.4261-18.027,27.067-11.937,3.2636-6.5208,13.668-4.1758,29.048-32.979,29.877-8.0442,8.6326-10.876,63.437-17.279,24.606,10.796-21.135-25.207-37.344-25.253-30.649-23.494-38.071-49.453,20.461-37.124,43.797,4.758,20.145,43.737-11.851,29.067,16.9-24.95,22.134,28.57,28.808,6.227,57.171,2.4526,15.014,25.986,23.784,32.556,26.761,9.3795-14.025,35.666-6.4278,24.678,7.2415,11.243-21.406,32.171,18.929,48.215,9.3755,12.439,23.078,36.14,34.884,60.255,43.766,7.9204,10.28,15.326,18.535,3.1117,27.39,7.2121-6.1564,26.431,3.5686,7.7446,6.0993,24.368-10.894,30.725,10.863,53.954,7.6243,20.134-0.2817,58.876,17.658,24.95,35.548-15.619,15.838-18.527,48.102-51.362,40.486-21.071,6.8144-28.524,27.068-58.251,13.234,32.929,16.262-46.126-3.8016-3.1739,8.6705,125.31,36.957,268.93-4.4705,355.3-102.43,3.8332-27.991,34.124-61.468,6.8759-83.907,8.0175-16.846-0.336-31.895-14.278-16.072-17.25-12.374-32.366,27.111-53.727,27.264-22.323,22.469-42.739-12.639-61.305-16.6-2.9391-13.636-1.5689-38.606-7.3218-57.757,10.7-32.221,26.79-56.161,29.692-88.557,20.794-6.2535,39.501-46.109,61.678-43.752-2.8026,25.013,38.363,11.711,39.912,2.1875-6.7173-24.115,45.785-29.179,22.864-60.446-11.683-36.704-15.409,28.16-34.599,2.4062-12.088-21.901,29.979-50.836,0.4885-57.68-11.298,8.1945-18.209-24.591-13.509,4.451,16.273,13.019-15.053-2.6086-4.7713,15.494,8.3384,16.364,21.014,28.317,9.5885,43.969,8.9933,3.9797,11.026,6.6218,7.5194,17.149-6.9133-8.3899-34.218-24.257-51.274-18.588,5.5598,11.794,44.629,12.552,28.233,22.642-33.644-22.213-57.621,7.3391-49.458,40.591,2.2199,30.515-44.778,27.614-39.694-3.2717-13.653-18.351,42.78-16.784,14.314-38.81-30.018-1.8053,10.346-27.075,2.2868-47.521,15.342-6.4237-20.682-28.177-3.0195-24.613,6.3255,25.916,37.323-5.4253,21.73-16.942-4.5617-9.1887,1.3289-10.935-9.6803-20.796,7.5891-27.659-7.8556,20.951-19.437-6.0436-1.1985-16.73-24.013-18.181-6.8943-1.5977,3.1584,18.229,34.305,26.438,22.394,46.105-12.34-11.108-20.782-20.669-22.706-1.5773-12.63-8.3703-10.326-13.428-16.669-16.47,7.2772-16.048-9.0912-30.878-12.574-50.605-3.3747-16.753,16.306-14.87,29.491-21.254,1.3316,11.698-3.6191,17.859,12.921,15.293-4.523-17.314-21.34-22.195-14.088-26.012-6.1536-12.745-10.91-19.061-13.365-31.021-19.64,4.589-30.154-9.6822-4.981-7.1415,21.387,6.5022,14.985,5.4563,1.2056-3.4491-1.023-0.23089-23.486,6.9196-19.382-1.6992-9.5336-6.2498,9.937-8.6422-12.113-2.0794-9.724-6.1003-69.01-17.52-32.199-20.83-15.297-6.0553-44.925-20.15-64.974-13.323-24-7.6272-57.44,9.5882-85.91,14.954-37.228,12.237,33.288-19.599-4.3225-9.0799-2.4144-7.9828,45.963-18.548,24.765-21.012zm245.73,200.81-0.1094,0,0.1094,0zm-242.23-198.62zm-13.599,0.65625-2.7708,0.58333,2.7708-0.58333zm84.984,14zm-129.24,0.25521-0.875,0.54687,0.875-0.54687zm74.229,1.349zm32.083,0.98438c12.927,0.67241,22.251,7.5245,2.4092,1.1932l-2.4092-1.1932zm28.219,1.7865zm2.9896,1.5312,0.067,1.2014-0.067-1.2014zm-151.08,1.4948-1.2031,0.51042,1.2031-0.51042zm48.271,0.40104-1.4219,0.76563,1.4219-0.76563zm-50.349,0.58333-1.5312,1.1667,1.5312-1.1667zm190.39,0.6198zm-192.72,0.54687,0.14584,0.54688-0.14584-0.54688zm76.453,1.75zm-66.755,10.354zm181.85,1.0573zm-207.59,0.10937-0.21437,1.6755,0.21437-1.6755zm218.71,1.4219,1.8229,0.25521-1.8229-0.25521zm-219.99,0.29167zm207.52,1.1302zm-142.08,3.1354,0.38736,0.55189-0.38736-0.55189zm-65.917,0.40104zm206.21,0.61979zm7.0365,1.0208-0.57728,1.5365,0.57728-1.5365zm29.057,1.4583zm16.151,0.76563-1.2396,0.76562,1.2396-0.76562zm-263.34,2.8802zm-2.625,1.75zm267.86,0.21875,0.76563,0.98437-0.76563-0.98437zm0.72917,4.0469zm34.854,0.98438zm-51.187,1.9688c12.982,6.074,35.789,22.792,8.0247,9.1328-3.709-2.1216-4.9806-6.371-8.0247-9.1328zm-250.25,1.4219zm-3.6823,2.5521zm231.15,1.276zm-1.6042,0.14583,1.1667,1.0208-1.1667-1.0208zm5.0677,1.5312zm-2.224,0.25521-0.83854,2.2969,0.83854-2.2969zm-3.6823,0.80208zm-218.93,2.2604,1.276,0.0729-1.276-0.0729zm224.98,0.25521zm-226.99,0.4375zm224.73,0.6927zm61.797,0.0365zm-285.03,0.83854-0.22429,0.94485,0.22429-0.94485zm228.74,0.21875-0.36113,0.81318,0.36113-0.81318zm44.953,1.8594zm-49.438,9.0417,0.51041,1.7135-0.51041-1.7135zm-138.94,1.0208zm-19.068,1.6042c13.732,0.52879-4.9836,21.681,2.8182,25.52-4.4744,26.429-34.898-0.41213-18.172-8.139,1.7352,6.467,17.819-12.279,3.488-11.601,2.4177-3.9156,7.6494-5.2699,11.866-5.7809zm225.39,0.18229zm-194.87,1.3125-1.7865,0.94791,1.7865-0.94791zm-15.349,0.32812zm18.266,0.14584zm-3.7188,0.58333zm127.68,0.0365zm7.1094,0.18229zm-141.93,0.76562zm-4.1198,0.58334c2.6398,3.2167,7.0874,15.021-5.2774,6.6353,1.9092-4.8906-4.6787-4.7112,5.2774-6.6353zm22.24,1.4583zm34.635,0.94792c17.618,8.868-29.106,27.738-35.705,20.374,5.5754-5.603,28.217-10.793,21.726-15.447-2.8237-8.6098,10.25-1.3893,13.978-4.9268zm78.641,1.75c20.745,8.9193,7.7034,10.395,4.3385,8.276-15.849-3.8782-0.66232-3.7353-4.3385-8.276zm-121.48,0.51041zm129.86,0.80209zm2.5521,0.40104zm-129.9,0.61979,0.54687,1.7135-0.54687-1.7135zm70.729,0.0365c6.167,0.26979,2.1829,13.313,18.156,4.4115-8.4269,22.776,22.953,37.472-0.83855,42,8.6109,6.4959,21.94,16.537,1.4559,9.3973-3.9084,12.823,22.957,1.1289,4.5164,16.119-16.141,5.6135-31.559,20.545-35.588,40.24-4.4806,17.129-26.174-3.6591-19.603-17.23-7.3594-8.3838-1.4534-20.611,0.98438-20.818,6.4438-14.428-3.1333-15.434-1.6771-32.995-2.8843-13.873-13.497-12.947-11.74-24.172,20.542-9.611,31.801-11.971,44.333-16.953zm-64.385,1.1667zm-13.599,1.3125-1.4776,1.3459,1.4776-1.3459zm-116.16,0.2552-1.7864,0.72917,1.7864-0.72917zm0.40105,0.58334-3.6458,2.3333,3.6458-2.3333zm177.44,0.875,1.0938,1.75-1.0938-1.75zm-65.552,0.29166,0.65625,0.875-0.65625-0.875zm129.28,0.69271zm-126.51,0.29167c5.8616,9.7887-10.051,1.4567,0.00004-0.00004l-0.00004,0.00004zm11.703,0.10937zm-17.573,0.32813-1.7136,1.1667,1.7136-1.1667zm-112,1.0573zm0.51042,0.36458zm99.859,1.1301zm32.63,0.69271zm-7.1094,0.25521c-2.493,6.4615,17.587,25.484-3.8333,12.221-5.5645-4.3886,1.0659-8.7203,3.8333-12.221zm-130.45,1.2396zm1.9688,0.14584-0.84085,1.125,0.84085-1.125zm125.42,1.3854-1.3854,0.875,1.3854-0.875zm-5.4323,0.0365,1.6406,0.32813-1.6406-0.32813zm13.016,0.40104-1.5677,1.2396,1.5677-1.2396zm-10.792,0.0365zm-128.48,0.875zm114.59,1.276zm2.625,0.32813,1.4948,0.98437-1.4948-0.98437zm-114.15,0.29167zm-2.1875,0.4375zm304.9,1.276-1.2709,0.45604,1.2709-0.45604zm-312.48,0.83854zm128.99,2.5156zm183.06,0,1.1302,2.1875-1.1302-2.1875zm-144.38,0.0365,1.4219,1.0938-1.4219-1.0938zm-163.44,0.0729,1.2031,0.18229-1.2031-0.18229zm231.26,1.2396,0.2552,1.5677-0.2552-1.5677zm-80.974,0.25521-1.0208,1.3125,1.0208-1.3125zm-154.51,1.5312-1.3854,1.276,1.3854-1.276zm-1.0573,0.14583zm107.15,0.4375-0.76563,1.2396,0.76563-1.2396zm-15.495,1.9323zm43.786,0.4375c-10.25,19.77,1.2913-2.5475,5.4468,7.9726,1.0392,7.5348,12.675,19.237,9.1404,24.29-7.7966,10.534,15.58,18.004-1.4402,22.166-6.6496-13.578-3.7706,5.8685-8.6602,12.827-11.828-10.799-0.92694,18.211-14.184-7.1048-6.3732-13.011-10.131-11.75,5.6471-16.091,20.267-20.594-21.062-28.035-4.6268-40.706l5.7148-2.6239,2.9622-0.73028h-0.00002zm-36.859,3.5364-1.1863,1.3672,1.1863-1.3672zm5.9427,0.0729zm-109.05,0.875zm149.3,0.29167zm168.73,0.29166-0.4401,1.6778,0.4401-1.6778zm-71.859,2.2969zm-250.14,0.58333zm-5.9062,3.2448c2.3602,9.1803-16.513,28.213-3.974,6.526-5.2258,4.7057,9.8518-9.1005,3.974-6.526zm134.82,2.4792zm115.03,5.7969zm4.0104,1.3854zm-2.2604,0.98438zm-108.21,0.18229zm-15.203,0.18229zm19.615,2.1875-2.0442,0.3777,2.0442-0.3777zm47.578,0.21875-1.551,0.83658,1.551-0.83658zm-46.885,1.9323-0.84312,1.5116,0.84312-1.5116zm-155.13,1.9323zm-0.29166,0.21875zm204.75,1.6042zm-1.2031,0.18229-1.2031,0.94792,1.2031-0.94792zm-47.104,1.2031-0.80208,1.75,0.80208-1.75zm102.05,0.21875zm-107.59,0.91138zm-21,1.3125zm24.938,0.58333zm-29.312,0.83854c17.73,24.302-22.217,9.2422-1.1666,0.94792l1.1667-0.94792h-0.00005zm75.031,0.18229zm177.22,3.3177zm-30.26,0.18229-0.9844,1.3854,0.9844-1.3854zm42.474,9.9531zm-269.68,1.8958zm168.4,0.21875c24.582,16.117-25.97,23.191-14.729,4.5208,5.1571,6.3853,9.2665-3.8955,14.729-4.5208zm-153.31,1.8229-0.36458,2.1146,0.36458-2.1146zm-3.7188,0.4375zm258.05,1.5312zm-263.89,1.9688zm226.7,2.7344,1.1302,1.1667-1.1302-1.1667zm190.2,0.69271c3.3912,17.871-1.1294,18.107-8.0939,26.943,22.123,25.599,13.484-4.5992,12.928-9.5361,9.2675,3.919-5.5157-15.022-4.834-17.407zm-405.09,0.58334,1.7865,1.0208-1.7865-1.0208zm99.24,1.5312-1.7865,0.65625,1.7865-0.65625zm82.104,2.1875,1.5588,1.1125-1.5588-1.1125zm19.578,1.6042zm55.234,1.75,1.6771,0.94792-1.6771-0.94792zm-7.875,1.349zm-224.4,1.5677zm220.57,1.349,1.0046,0.96984-1.0046-0.96984zm12.688,0.875zm-10.792,0.76562zm-225.71,1.2031zm228.45,1.2396,0.627,1.6782-0.627-1.6782zm-47.76,0.94792zm44.443,0.54687zm-235.16,0.32813zm189.77,2.3333c11.704,16.861,55.262,26.4,21.219,47.133-0.1596-11.031,5.135-8.5966-5.5538-12.648,9.596-22.387-24.653-11.476-15.665-34.485zm-181.23,1.5677zm175.18,2.4427zm223.78,3.2812,0.9844,2.4062-0.9844-2.4062zm-221.99,0.65625zm-228.34,0.21875zm106.02,0.29166-1.6042,0.80209,1.6042-0.80209zm121.01,0.29167-1.2396,0.76563,1.2396-0.76563zm-118.16,3.2812-0.875,1.1302,0.875-1.1302zm165.7,0.51042-0.9844,1.2031,0.9844-1.2031zm-40.87,0.58333zm-121.77,0.14583,1.75,1.0208-1.75-1.0208zm328.45,0.65625,0.8021,0.58334-0.8021-0.58334zm-205.22,1.0938-0.4375,1.276,0.4375-1.276zm-398.05,1.5677,0.0365,1.4583-0.0365-1.4583zm397.58,0.0365-0.6563,1.9323,0.6563-1.9323zm2.8072,0.72917zm-254.01,3.2812zm252.51,1.3854c18.409,13.801-8.0093,34.143-6.2059,8.472,0.4459-4.5295,1.6536-7.6529,6.2059-8.472zm-399.51,1.3125zm564.16,3.901zm-152.54,0.875-1.5312,0.94791,1.5312-0.94791zm121.88,5.5417-0.1914,1.8555,0.1914-1.8555zm-105.22,4.1562-1.4948,0.94792,1.4948-0.94792zm195.31,0.21875c1.9126,11.984,14.014,63.234,1.8189,55.157-1.9576-17.342-57.125-47.661-35.834-25.115,18.064,15.662,51.305,62.875,43.495,12.359-2.272-14.313-5.4399-28.483-9.4791-42.401zm-92.896,0.51042-1.3489,0.72917,1.3489-0.72917zm-39.047,0.36458zm60.448,3.2448zm-3.9375,0.18229-0.2917,2.1146,0.2917-2.1146zm-9.2969,2.8073,1.5677,0.21875-1.5677-0.21875zm6.599,1.5677zm6.0521,1.2031,0.3281,1.7865-0.3281-1.7865zm-23.406,6.3802zm23.625,0.14583zm-20.818,2.2969zm-43.531,0.40104-0.9479,1.2396,0.9479-1.2396zm53.266,0.36458,0.875,1.349-0.875-1.349zm-312.56,1.0938c-12.361,10.462,15.782,26.192,2.5548,27.711-5.0045-3.3796-9.2076,0.37705-19.727-11.56,8.8576-1.7725,8.4694-13.723,17.172-16.151zm255.86,1.1667zm-289.55,1.8229zm245.58,0.91146zm-445.16,0.91145zm446.03,0.25521zm76.271,1.6771,1.0573,1.6771-1.0573-1.6771zm-0.7291,4.5938zm-26.432,0.76562zm-260.13,0.36458zm-41.016,9.224zm330.93,2.9531zm-317.62,0.80208zm274.82,2.2604-1.2396,0.4375,1.2396-0.4375zm144.63,1.2396,0.6198,0.18229-0.6198-0.18229zm-147.73,1.2396zm-483.15,1.2031zm-3.974,4.3021-0.47396,1.7136,0.47396-1.7136zm635.58,4.6302zm-482.02,3.6458zm375.16,0.51041-0.4914,1.3198,0.4914-1.3198zm-477.9,13.599zm10.682,9.4062zm68.724,4.375-1.6406,0.98438,1.6406-0.98438zm231.36,7.7292zm-5.1406,0.58333,2.0052,0.61979-2.0052-0.61979zm-257.43,29.458zm4.0104,2.7708zm5.724,1.3125zm1.5312,1.276zm-50.203,4.9948zm378.69,1.4948zm-335.23,1.3854zm-24.573,0.58333c19.505,1.6948,43.595,50.822,21.191,27.934,3.3551-13.328-32.868-27.86-21.191-27.934zm32.74,0.80209zm325.94,0.29166zm-377.12,2.151zm43.641,2.2969zm-25.776,0.25521zm347.16,0.58333zm4.0469,1.0208zm-376.51,5.651zm46.193,1.2396zm-46.703,2.4427-1.1667,1.0573,1.1667-1.0573zm594.02,0.21875-0.1921,1.9052,0.1921-1.9052zm-528.54,3.6458,1.4298,1.2796-1.4298-1.2796zm2.1146,1.6042zm-38.719,1.3125zm42.438,2.1146,1.2075,1.0015-1.2075-1.0015zm-68.031,0.875,0.58334,0.10938-0.58334-0.10938zm589.17,2.0781-0.5104,2.2604,0.5104-2.2604zm-523.65,2.9896zm-26.542,6.3073zm26.25,0.83855,1.7136,1.2031-1.7136-1.2031zm0.6198,1.5312c25.443,5.4682,14.551,24.489-1.3702,10.235-12.498-8.8006,5.3063-0.24971,1.3702-10.235zm29.677,19.615zm5.5417,3.1719zm3.4635,3.3541zm10.391,5.0313zm5.5781,7.1823zm223.56,3.5364zm164.24,1.9323zm-495.32,0.9479,0.45377,1.5274-0.45377-1.5274zm64.823,3.2813zm3.8281,1.8594zm258.85,1.2395zm-217,0.875-0.69271,1.9323,0.69271-1.9323zm-154.33,2.5157zm2.9531,2.1875zm158.12,1.0937,0.94792,1.7136-0.94792-1.7136zm-11.63,3.5365-1.0573,0.9843,1.0573-0.9843zm-16.042,2.4791,2.0052,0.474-2.0052-0.474zm399.44,2.4063zm-378.88,1.7864,0.91146,0.036-0.91146-0.036zm-2.9531,1.2761zm62.854,63.547-0.51306,1.1073,0.51306-1.1073zm-4.2656,2.0416zm-0.54688,1.5677-0.83346,1.0433,0.83346-1.0433zm1.2396,0.4011-1.2396,0.9114,1.2396-0.9114zm38.609,14.036-0.47396,1.4219,0.47396-1.4219zm3.2083,75.396zm-118.45,8.6406,1.2396,0.5469-1.2396-0.5469z"/>
				</g>
			</g>
		</g>
	</g>
	<g transform="matrix(0.03079222,0,0,0.0300004,4.762334,114.99987)">
		<g transform="translate(-124.44924,-389.57265)">
			<g transform="translate(1.5187119,0.19332488)" fill="#000">
				<g fill-opacity="0.50196078" transform="matrix(0.68667897,0,0,0.68667897,11.76548,148.21063)">
					<path d="m174.69-0.1875c-12.08-0.06251-24.087,1.5144-35.062,5.875-34.9,13.171-60.75,42.483-64.719,75.875-3.929,31.626-4.8486,68.17,21.25,93.188,10.774,14.412,36.56,22.061,36.375,41.281,2.5324,20.439-18.013,32.172-38.438,34.562-24.289,2.6006-44.581,16.511-59.375,32.906-17.26,19.395-10.526,45.588-12.281,68.312,1.0138,19.43-2.0398,39.822,4.2812,58.594,0.01079-0.005,92.334-0.00097,178.22,0l124.25-71.75c-0.11798-6.3116-0.22196-12.575-0.1875-18.75,1.2066-18.174-7.3874-35.901-23.438-47.531-14.852-14.313-35.731-20.196-56.656-23.844-23.169-2.122-34.828-24.636-27.75-42.531,13.59-15.703,34.054-26.357,45.062-44,15.89-25.51,14.17-56.28,10.03-84.25-5.36-35.131-35.95-64.402-73.72-75.375-9-1.481-18.45-2.5139-27.84-2.5625z" fill-opacity="0.50196078" transform="matrix(1.4562846,0,0,1.4562846,164.09962,351.49179)" fill="#000"/>
				</g>
				<g fill-opacity="0.76862745" transform="matrix(0.77391942,0,0,0.77391942,138.92104,247.33059)">
					<path fill-opacity="0.76862745" fill="#000" d="m483.06,443.04c-59.872,36.673-86.352,108.59-69.48,174.34l-288.34,166.47,101.01,174.96,67.583-39.019-58.15-100.72,58.252-33.632,58.15,100.72,67.532-38.99-58.15-100.72,94.969-54.83c49.432,48.396,126.91,61.022,189.23,25.039,75.106-43.362,100.16-141.12,56.644-216.49-43.513-75.367-140.67-102.5-215.78-59.139-1.1735,0.67752-2.3303,1.3067-3.48,2.0092zm45.411,70.617c35.177-20.309,80.034-8.2514,101.22,28.443,21.186,36.695,9.2286,81.622-25.948,101.93-35.177,20.309-80.013,8.1719-101.2-28.523-21.186-36.695-9.2499-81.542,25.927-101.85z"/>
				</g>
			</g>
		</g>
		<g transform="translate(-124.44924,-389.57265)"></g>
	</g>
	<g transform="matrix(0.02166667,0,0,0.02166667,7.499999,144)">
		<g transform="matrix(2.0709118,0,0,2.0721749,-0.28221091,-0.46536054)">
			<g transform="matrix(1.0426026,0,0,1.0426026,-2.9384644,-9.5045268)">
				<path fill="#cd8b3c" d="m244.6,86.677c-13.111,1.0202-23.864-9.7639-34.216-16.363-10.411-9.0239-11.221-24.967-11.38-37.863,2.7802-13.393,18.694-16.1,30.444-15.287,8.7135-1.3452,16.466,3.1678,23.754,7.3185,11.586,8.6108,20.905,20.834,22.519,35.538,3.5283,13.604-7.0759,29.525-21.884,27.583-3.0393-0.3733-6.4314,0.55125-9.2373-0.92695z"/>
				<path fill="#d6a161" d="m245.9,29.329c5.255,4.9899,3.029,21.534-7.2296,26.33-10.424,5.3686-32.43,5.785-35.857-7.9176,0.0127-14.128-0.84867-38.317,20.477-33.587,9.2426-0.21772,26.694,2.9089,24.661,14.92l-0.90948,0.486-1.1414-0.23154z"/>
				<path fill="#f5f564" d="M196.37,24.985c-46.05,45.183-92.1,90.365-138.15,135.54,7.8201,17.233,15.64,34.466,23.46,51.7,16.075,6.2271,32.149,12.454,48.224,18.681,45.91-46.34,91.81-92.68,137.72-139.02-13.9-1.448-27.8-2.896-41.71-4.344-7.31-8.871-15.62-17.254-22.31-26.428-2.41-12.044-4.82-24.089-7.23-36.133z"/>
				<path fill="#cd8b3c" d="m53.437,182.26c-7.9649,21.433-15.93,42.866-23.895,64.299,5.7927,4.4893,11.585,8.9787,17.378,13.468,22.012-8.2546,44.024-16.509,66.037-24.764-19.843-17.68-39.683-35.35-59.523-53.01z"/>
				<path fill="#d6a161" d="m69.078,207.45c4.2118,20.266-13.982,40.967-33.825,41.728-12.583-11.298-0.56376-30.509,4.1038-43.496,2.0178-18.331,25.651-29.038,33.318-8.1099,1.315,2.9107,1.669,10.976-3.5962,9.8777z"/>
				<path fill="#282828" d="m39.531,250.47c-6.5647-7.2813,1.7355-18.755,4.3106-28.252,3.7505-10.224,7.501-20.448,11.251-30.673,8.2259,2.3898,10.652,5.0061,10.238,14.474,3.4278,12.7,15.445,21.534,30.163,19.316,4.2412,9.0069,1.6646,11.169-8.5126,13.793-13.069,4.6075-26.09,10.004-39.191,14.092-3.298,0.3718-6.2356-0.74839-8.2597-2.7504zm195.54-169.62c-8.6472-8.5737-17.294-17.147-25.942-25.721,0.39624-9.3737,0.79249-18.747,1.1888-28.121,9.442-0.05142,19.685-1.5278,28.626-0.68818,8.4789,8.4069,16.958,16.814,25.437,25.221-0.39625,9.3737-0.7925,18.747-1.1888,28.121-9.3737,0.39626-18.747,0.79251-28.121,1.1888zm12.23-71.513c-17.06,1.0824-34.12,2.1654-51.19,3.2484-46.79,46.793-93.58,93.59-140.37,140.38-17.596,44.7-35.191,89.39-52.787,134.09,44.762-17.6,89.525-35.21,134.29-52.81,46.72-46.72,93.439-93.439,140.16-140.16,1.1477-17.07,2.2954-34.14,3.4431-51.21-11.18-11.179-22.36-22.359-33.54-33.538zm-53.69,48.781c-38.57,38.565-77.14,77.127-115.7,115.7-12.124,4.07-15.563-12-5.057-18.83,40.418-40.42,80.838-80.839,121.27-121.26-0.16983,8.131-0.33965,16.262-0.50948,24.393zm-96.38,149.57c-13.189,2.33-21.08-15.9-8.177-25.71,36.467-36.52,72.927-73.03,109.39-109.55l19.141,19.141c-37.987,38.043-75.973,76.086-113.96,114.13-2.0936,0.96772-4.2537,1.7042-6.3891,1.9851zm147.25-162.16c-5.4968-11.169-29.479-5.377-19.942,9.3131,2.9656,8.1661,19.412,20.334,26.18,5.9607,0.67502-6.3756-2.4607-11.461-6.2383-15.274zm-12.619,51.07c8.131-0.16982,16.262-0.33965,24.393-0.50948-42.165,42.165-84.33,84.33-126.5,126.5-12.097,6.2916-19.225-9.1021-7.4877-16.396,36.53-36.53,73.06-73.06,109.59-109.59z"/>
			</g>
		</g>
	</g>
	<g transform="matrix(0.02166667,0,0,0.02166667,7.499999,172)">
		<g transform="matrix(2.0773188,0,0,2.0773188,-1.2112294,-1.2112255)">
			<g transform="matrix(1.0127217,0,0,0.99982507,-1.8446448,0.02536071)">
				<path d="m10.75,172c-0.51188,0.00001-1.0058,0.14487-1.5,0.40625-1.1709,0.7203-1.75,1.6806-1.75,2.9062-0.0000016,1.2663,0.48029,2.4967,1.4688,3.6875l5,6c1.5625-1.8438,3.125-3.6875,4.6875-5.5312,1.2238-1.3186,1.8437-2.704,1.8438-4.1562-0.000015-0.42403-0.09299-0.89286-0.28125-1.375-0.742-1.3-1.739-1.94-2.969-1.94-0.79431,0.00001-1.4896,0.31017-2.125,0.9375-0.54131,0.62155-0.91908,1.4027-1.125,2.3438h-0.03125c-0.01178-0.28462-0.12789-0.67853-0.375-1.2188-0.683-1.36-1.65-2.06-2.844-2.06z" transform="matrix(21.938886,0,0,22.221873,-162.1444,-3821.6043)" fill="#808080"/>
			</g>
		</g>
	</g>
	<g transform="matrix(0.02166667,0,0,0.02166667,10.469972,225.8035)">
		<g fill="#ff4040" transform="matrix(2.0773188,0,0,2.0773188,-1.2112294,-1.2112255)">
			<g fill="#ff4040" transform="matrix(1.0127217,0,0,0.99982507,-1.8446448,0.02536071)">
				<path d="m10.75,198c-0.51188,0.00001-1.0058,0.14487-1.5,0.40625-1.1709,0.7203-1.75,1.6806-1.75,2.9062-0.0000016,1.2663,0.48029,2.4967,1.4688,3.6875l5,6c1.5625-1.8438,3.125-3.6875,4.6875-5.5312,1.2238-1.3186,1.8437-2.704,1.8438-4.1562-0.000015-0.42403-0.09299-0.89286-0.28125-1.375-0.742-1.3-1.739-1.94-2.969-1.94-0.79431,0.00001-1.4896,0.31017-2.125,0.9375-0.54131,0.62155-0.91908,1.4027-1.125,2.3438h-0.03125c-0.01178-0.28462-0.12789-0.67853-0.375-1.2188-0.683-1.36-1.65-2.06-2.844-2.06z" transform="matrix(21.938886,0,0,22.221873,-227.3023,-5017.2188)" fill="#ff4040"/>
			</g>
		</g>
	</g>
	<g transform="translate(4.5000001,251)">
		<g fill="#FFF" transform="matrix(2.0773188,0,0,2.0773188,-1.2112294,-1.2112255)">
			<g transform="matrix(0.0316936,0,0,0.03277809,0.56070411,-0.55932828)">
				<path stroke-linejoin="round" d="m6.6342,134.53c-0.076064,31.726,23.943,57.729,50.383,72.132,47.341,25.37,105.51,27.219,155.8,9.6892,23.515,8.2731,47.03,16.546,70.544,24.819-11.059-15.306-22.118-30.613-33.178-45.919,24.237-17.705,40.171-50.228,30.265-79.964-10.67-33.133-42.26-54.372-73.93-64.857-48.7-16.224-104.59-12.817-149.91,11.817-26.422,14.56-49.976,40.53-49.962,72.28z" stroke="#000" stroke-linecap="round" stroke-miterlimit="4" stroke-dasharray="none" stroke-width="11.6589241" fill="#FFF"/>
			</g>
		</g>
	</g>
	<g transform="translate(4.2054367,224.08623)">
		<g fill="#FFF" transform="matrix(2.0773188,0,0,2.0773188,-1.2112294,-1.2112255)">
			<g transform="matrix(0.0316936,0,0,0.03277809,0.56070411,-0.55932828)">
				<path stroke-linejoin="round" d="m6.6342,134.53c-0.076064,31.726,23.943,57.729,50.383,72.132,47.341,25.37,105.51,27.219,155.8,9.6892,23.515,8.2731,47.03,16.546,70.544,24.819-11.059-15.306-22.118-30.613-33.178-45.919,24.237-17.705,40.171-50.228,30.265-79.964-10.67-33.133-42.26-54.372-73.93-64.857-48.7-16.224-104.59-12.817-149.91,11.817-26.422,14.56-49.976,40.53-49.962,72.28z" stroke="#000" stroke-linecap="round" stroke-miterlimit="4" stroke-dasharray="none" stroke-width="11.6589241" fill="#FFF"/>
			</g>
		</g>
	</g>
	<g fill="#000" transform="matrix(0.06583771,0,0,0.06809054,4.5626789,220.97799)">
		<path d="m106.91,139.47a28.877,28.877,0,1,1,-57.754,0,28.877,28.877,0,1,1,57.754,0z" transform="matrix(0.57446809,0,0,0.57446809,20.915976,64.878742)"/>
		<path d="m106.91,139.47a28.877,28.877,0,1,1,-57.754,0,28.877,28.877,0,1,1,57.754,0z" transform="matrix(0.57446809,0,0,0.57446809,167.20625,64.878742)"/>
		<path d="m106.91,139.47a28.877,28.877,0,1,1,-57.754,0,28.877,28.877,0,1,1,57.754,0z" transform="matrix(0.57446809,0,0,0.57446809,94.087121,64.878742)"/>
	</g>
</svg>
