<?xml version="1.0" encoding="UTF-8" standalone="no"?>
<!-- Created with Inkscape (http://www.inkscape.org/) -->
<svg xmlns:rdf="http://www.w3.org/1999/02/22-rdf-syntax-ns#" xmlns="http://www.w3.org/2000/svg" height="45" width="45" version="1.1" xmlns:cc="http://creativecommons.org/ns#" xmlns:dc="http://purl.org/dc/elements/1.1/">
<metadata>
<rdf:RDF>
<cc:Work rdf:about="">
<dc:format>image/svg+xml</dc:format>
<dc:type rdf:resource="http://purl.org/dc/dcmitype/StillImage"/>
<dc:title/>
</cc:Work>
</rdf:RDF>
</metadata>
<path d="m4.5e-8 22.5v-22.5h45v45h-45z" fill-opacity=".5" fill="#fcfc80"/>
<path d="m22.5 14c-2.9823 0-5.4 2.3621-5.4 5.2759h-0.9c-0.6648 0-1.2 0.5229-1.2 1.1724v9.3793c0 0.65 0.535 1.173 1.2 1.173h12.6c0.6648 0 1.2-0.5229 1.2-1.1724v-9.3793c0-0.65-0.535-1.173-1.2-1.173h-0.9c0-2.914-2.418-5.276-5.4-5.276zm0 1.1724c0.5799 0 1.1323 0.11522 1.6348 0.32286 0.50248 0.20766 0.95474 0.50802 1.3348 0.87933 0.38002 0.37129 0.68746 0.81315 0.9 1.3041 0.212 0.492 0.33 1.031 0.33 1.598h-8.4c0-0.56656 0.11793-1.1062 0.33047-1.5972 0.21254-0.49093 0.51998-0.93279 0.9-1.3041 0.38004-0.37131 0.83229-0.67167 1.3348-0.87933 0.50246-0.20764 1.0549-0.32286 1.6348-0.32286z" fill-opacity=".50196" fill="#010000"/>
</svg>
