<?xml version="1.0" encoding="UTF-8" standalone="no"?>
<!-- Created with Inkscape (http://www.inkscape.org/) -->
<svg xmlns:rdf="http://www.w3.org/1999/02/22-rdf-syntax-ns#" xmlns="http://www.w3.org/2000/svg" height="84" width="100" version="1.1" xmlns:cc="http://creativecommons.org/ns#" xmlns:xlink="http://www.w3.org/1999/xlink" xmlns:dc="http://purl.org/dc/elements/1.1/">
	<defs>
		<linearGradient id="linearGradient11689" y2="537.18" gradientUnits="userSpaceOnUse" x2="461.64" gradientTransform="matrix(1.0725809,0.01420936,0.0167635,1.0386318,-42.855209,-28.400648)" y1="424.05" x1="517.2">
			<stop stop-color="#000" stop-opacity="0.12195122" offset="0"/>
			<stop stop-color="#FFF" stop-opacity="0" offset="1"/>
		</linearGradient>
	</defs>
	<metadata>
		<rdf:RDF>
			<cc:Work rdf:about="">
				<dc:format>image/svg+xml</dc:format>
				<dc:type rdf:resource="http://purl.org/dc/dcmitype/StillImage"/>
				<dc:title/>
			</cc:Work>
		</rdf:RDF>
	</metadata>
	<g transform="matrix(0.16666666,0,0,0.16666666,2.0754295e-6,10.194513)">
		<g transform="matrix(2.0773188,0,0,2.0773188,-1.2112294,-1.2112255)">
			<g transform="matrix(0.48138976,0,0,0.48138976,-79.199313,-119.0809)">
				<g transform="matrix(1.5055921,0,0,1.5055921,-140.80747,-292.46083)">
					<path stroke-linejoin="round" d="m453.81,372.82c47.566,23.986,95.132,47.972,142.7,71.957,8.7428,6.1564-0.70236,15.327-3.257,22.378-22.201,44.027-44.402,88.054-66.604,132.08-6.1564,8.7428-15.327-0.70236-22.378-3.257-43.316-21.843-86.632-43.685-129.95-65.528-8.7428-6.1564,0.70236-15.327,3.257-22.378,22.201-44.027,44.402-88.054,66.604-132.08,1.6382-3.478,6.2422-4.9953,9.6272-3.1727z" stroke-dashoffset="0" stroke="#000" stroke-linecap="round" stroke-miterlimit="4" stroke-dasharray="none" stroke-width="3.94899988" fill="#FFF"/>
					<path stroke-linejoin="round" d="m454.54,387.16c43.426,21.149,87.462,41.117,130.28,63.448,5.3629,2.797-1.1651,12.547-3.935,18.061-16.561,32.821-32.311,66.13-49.378,98.645-6.6393,2.1012-13.124-4.71-19.605-6.7879-38.926-19.195-78.315-37.667-116.95-57.312-2.7675-6.378,4.0514-11.927,5.7858-17.835,16.423-32.544,32.036-65.577,48.966-97.816,1.2593-1.0327,3.2556-1.203,4.8392-0.4033z" stroke-dashoffset="0" stroke="#000" stroke-linecap="round" stroke-miterlimit="4" stroke-dasharray="none" stroke-width="4.04459715" fill="url(#linearGradient11689)"/>
					<g stroke-linejoin="round" stroke-dashoffset="0" transform="matrix(1.0641745,-0.22435028,0.24507228,0.97419351,-138.9948,102.17122)" stroke-linecap="round" stroke-miterlimit="4" stroke-dasharray="none">
						<path d="m252.86,378.08h160c8.3674,2.1362,3.8446,12.877,5,19.263-0.2575,23.74,0.51739,47.583-0.39172,71.258-4.6504,5.6217-13.3,2.032-19.822,3.0502h-144.79c-8.3674-2.1362-3.8446-12.877-5-19.263,0.25749-23.74-0.5174-47.583,0.39172-71.258,0.74156-1.8189,2.6406-3.0816,4.6083-3.0502z" stroke="#000" stroke-width="1.39999998" fill="#00e2ff"/>
						<path d="m417.78,462.67c-2.5183,1.4902-18.907-7.3968-28.301-6.7954-11.648-4.3619-24.293-1.896-36.207-3.516-18.805-0.62852-37.064,4.084-55.642,6.6669-11.814,2.5329-35.3,4.6648-22.144,21.766,10.198,14.907,25.301,26.328,43.617,28.554,15.879,3.1095,81.811-8.7286,97.826-7.7352,0.87535-16.029,3.5964-22.988,0.85157-38.94z" stroke="#002a00" stroke-width="1.39999998" fill="#004800"/>
						<path d="m247.14,458.08c2.8818-1.5341,22.921,3.2021,33.71,4.4006,13.33,4.4722,29.355,3.0524,41.238,7.924,9.8917,4.0024,24.751,6.114,27.894,17.401,6.2268,18.747-22.32,14.111-34.582,15.274-24.112-0.41647-48.393,1.1846-72.236-1.6858-1.0529,1.4432-0.69212-2.9809-1.2384-11.169,1.5576-11.106,2.0939-19.597,3.8138-29.812,0.4667-0.77787,0.93354-1.5558,1.4001-2.3336z" stroke="#003b00" stroke-width="1.39999998" fill="#006a00"/>
						<path d="m250,494.51c15.685-3.9009,31.303-8.4856,47.442-10.006,19.379-3.3207,38.603,3.4759,58.013,2.4349,18.235-4.666,36.879,0.65812,55.244,1.4248,7.8983,0.56169,17.312,5.598,16.813,14.677-1.7209,9.6259-2.9406,19.366-3.8986,29.132-0.91734,9.5834-6.0892,20.047-16.41,22.022-23.38,8.0063-48.359,3.4044-72.489,4.5255-21.096-1.5627-42.278-2.7524-63.143-6.4181-10.717-0.0713-23.857,0.49183-31.357-8.596-5.055-8.0599-1.3428-18.167-4.3546-26.968-1.703-7.3406-1.866-19.463,8.2562-20.117,2.5638,0.092,4.2113-0.1309,5.8841-2.1125z" stroke="#004e00" stroke-width="1.5" fill="#090"/>
					</g>
					<path opacity="0.65714285" fill="#FFF" d="m222.41,413.17c58.006-13.358,116.01-26.717,174.02-40.075,8.6376,0.20744,6.6372,11.698,9.1993,17.666,11.756,51.047,23.511,102.09,35.267,153.14-0.20745,8.6376-11.698,6.6372-17.666,9.1993-53.367,12.29-106.73,24.58-160.1,36.87-8.6376-0.20745-6.6372-11.698-9.1993-17.666-11.756-51.047-23.511-102.09-35.267-153.14-0.67185-2.5963,1.1217-5.4631,3.7504-5.9946z"/>
					<path stroke-linejoin="round" d="m234.41,113.28c-4.9485,0.0208-10.816,2.4631-15.375,3.125l-172.29,39.69c-11.247,3.8459-4.433,16.084-3.25,24.188l40.312,175.12c3.8678,11.239,16.107,4.4048,24.219,3.2188l172.31-39.656c11.239-3.8678,4.436-16.107,3.25-24.219l-40.34-175.12c-1.6966-4.906-4.9949-6.3599-8.8438-6.3438zm-7,15.625c3.3887-0.13774,6.2287,0.84083,7.5312,4.375,9.561,42.268,19.126,84.514,28.688,126.78,0.7284,5.8962,6.2626,14.646-3.7812,17.844-51.08,11.56-102.15,23.11-153.23,34.66-7.181,1.14-18.215,6.54-21.182-1.56-9.562-42.27-19.127-84.54-28.688-126.81-0.726-5.89-6.269-14.63,3.781-17.81,51.069-11.56,102.15-23.1,153.22-34.66,4.0388-0.63343,9.2994-2.6354,13.656-2.8125z" stroke-dashoffset="0" transform="translate(165.73345,248.58022)" stroke="#000" stroke-linecap="round" stroke-miterlimit="4" stroke-dasharray="none" stroke-width="5.01399994" fill="#FFF"/>
				</g>
			</g>
		</g>
	</g>
</svg>
