<?xml version="1.0" encoding="UTF-8" standalone="no"?>
<!-- Created with Inkscape (http://www.inkscape.org/) -->
<svg xmlns:rdf="http://www.w3.org/1999/02/22-rdf-syntax-ns#" xmlns="http://www.w3.org/2000/svg" height="84" width="100" version="1.1" xmlns:cc="http://creativecommons.org/ns#" xmlns:xlink="http://www.w3.org/1999/xlink" xmlns:dc="http://purl.org/dc/elements/1.1/">
<defs>
<linearGradient id="linearGradient11689" y2="537.18" gradientUnits="userSpaceOnUse" x2="461.64" gradientTransform="matrix(.26914 .0035656 .0042065 .26063 -61.844 -87.106)" y1="424.05" x1="517.2">
<stop stop-opacity=".12195" offset="0"/>
<stop stop-color="#fff" stop-opacity="0" offset="1"/>
</linearGradient>
</defs>
<metadata>
<rdf:RDF>
<cc:Work rdf:about="">
<dc:format>image/svg+xml</dc:format>
<dc:type rdf:resource="http://purl.org/dc/dcmitype/StillImage"/>
<dc:title/>
</cc:Work>
</rdf:RDF>
</metadata>
<g>
<g stroke-linejoin="round" stroke="#000" stroke-linecap="round">
<path d="m62.785 13.574c11.936 6.0188 23.872 12.038 35.808 18.056 2.1938 1.5448-0.17624 3.8461-0.81728 5.6153-5.572 11.048-11.143 22.096-16.714 33.144-1.545 2.194-3.846-0.176-5.615-0.817-10.87-5.481-21.739-10.962-32.608-16.443-2.1938-1.5448 0.17624-3.8461 0.81728-5.6153l16.713-33.143c0.41107-0.87274 1.5664-1.2535 2.4158-0.79613z" stroke-width=".99093" fill="#fff"/>
<path d="m62.968 17.172c10.897 5.3071 21.947 10.317 32.691 15.921 1.3457 0.70185-0.29235 3.1484-0.98742 4.5321-4.156 8.236-8.108 16.595-12.391 24.754-1.666 0.527-3.293-1.182-4.919-1.704-9.768-4.816-19.652-9.452-29.347-14.381-0.69445-1.6004 1.0166-2.9929 1.4518-4.4754 4.1212-8.1663 8.0389-16.455 12.287-24.545 0.316-0.25913 0.81693-0.30188 1.2143-0.1012z" stroke-width="1.0149" fill="url(#linearGradient11689)"/>
<path d="m4.8038 23.847c14.242-3.002 28.484-6.005 42.725-9.007 2.3658 0.05116 1.8185 2.9314 2.5198 4.4274 1.3912 5.8179 3.0644 11.603 4.2775 17.442-0.89612 1.6361-3.4266 1.2455-5.1056 1.8615-12.888 2.717-25.775 5.434-38.663 8.151-2.3656-0.051-1.8184-2.931-2.5197-4.427-1.3911-5.818-3.0643-11.603-4.2775-17.442 0.086165-0.4864 0.51563-0.90198 1.043-1.0051z" stroke-width=".36706" fill="#00e2ff"/>
</g>
<g stroke-linejoin="round" stroke-linecap="round">
<path d="m54.047 35.243c-0.58083 0.50605-5.5037-0.7438-7.9754-0.06791-3.3787-0.41056-6.6038 0.90416-9.8849 1.1789-5.0601 0.90499-9.6462 3.0849-14.448 4.7622-2.9991 1.2843-9.1396 3.1276-4.5747 6.5675 3.6398 3.0701 8.3754 5.0118 13.403 4.5247 4.4315-0.1338 21.31-6.7395 25.647-7.3982-0.75197-3.9676-0.45332-5.8221-2.1673-9.5671z" stroke="#002a00" stroke-width=".36706" fill="#004800"/>
<path d="m8.1976 43.725c0.67522-0.53725 6.3177-0.50762 9.2724-0.82202 3.8345 0.34283 8.0266-0.90641 11.499-0.38446 2.8876 0.42153 6.9854 0.10121 8.5189 2.6835 2.8157 4.2324-5.0925 4.706-8.2953 5.6808-6.464 1.256-12.85 3.014-19.393 3.655-0.1927 0.412-0.3685-0.69-1.0179-2.661-0.267-2.803-0.646-4.908-0.8149-7.502 0.0768-0.217 0.1536-0.433 0.2304-0.65z" stroke="#003b00" stroke-width=".36706" fill="#006a00"/>
<path d="m11.201 52.47c3.9486-1.8366 7.8373-3.8366 12.053-5.1168 4.9708-1.9028 10.522-1.3235 15.641-2.6707 4.5826-2.1672 9.8884-1.9153 14.84-2.7617 2.1437-0.30734 4.9672 0.39386 5.3923 2.6414 0.13243 2.45 0.40569 4.8996 0.75046 7.3411 0.34438 2.3944-0.39321 5.2435-3.0278 6.3074-5.7509 3.2734-12.704 3.5547-19.079 5.1872-5.7295 0.80562-11.459 1.7073-17.256 1.9858-2.8662 0.58589-6.3405 1.4633-8.902-0.33605-1.8444-1.686-1.475-4.366-2.8201-6.348-0.9062-1.699-1.6952-4.653 0.9675-5.383 0.6906-0.121 1.1166-0.269 1.4416-0.847z" stroke="#004e00" stroke-width=".39328" fill="#090"/>
</g>
<path opacity=".65714" d="m4.7192 23.698c14.556-3.352 29.111-6.704 43.667-10.056 2.1674 0.05205 1.6655 2.9354 2.3084 4.433l8.8497 38.428c-0.05206 2.1674-2.9354 1.6655-4.433 2.3084-13.392 3.084-26.783 6.168-40.175 9.252-2.167-0.052-1.665-2.935-2.308-4.433-2.9501-12.809-5.9-25.619-8.8499-38.428-0.1686-0.651 0.2815-1.371 0.9411-1.504z" fill="#fff"/>
<path stroke-linejoin="round" d="m49.318 10.824c-1.2417 0.0052-2.7141 0.61808-3.8581 0.78416l-43.231 9.959c-2.8223 0.96506-1.1124 4.0361-0.81553 6.0694l10.116 43.945c0.97054 2.8202 4.0418 1.1053 6.0773 0.80769l43.239-9.951c2.8202-0.97055 1.1131-4.0418 0.81553-6.0773l-10.125-43.946c-0.42572-1.2311-1.2534-1.5959-2.2192-1.5918zm-1.7565 3.9208c0.85033-0.03456 1.563 0.21099 1.8898 1.0978 2.3992 10.606 4.7994 21.207 7.1986 31.813 0.18278 1.4796 1.5715 3.6752-0.94884 4.4776-12.816 2.9-25.632 5.7963-38.447 8.6964-1.8033 0.28435-4.572 1.6397-5.3166-0.39208-2.4005-10.607-4.8007-21.215-7.1999-31.822-0.1822-1.478-1.5732-3.671 0.9488-4.469 12.816-2.9 25.632-5.797 38.447-8.697 1.0135-0.15895 2.3335-0.66131 3.4268-0.70575z" stroke="#000" stroke-linecap="round" stroke-width="1.2582" fill="#fff"/>
</g>
</svg>
