<?xml version="1.0" encoding="UTF-8" standalone="no"?>
<!-- Created with Inkscape (http://www.inkscape.org/) -->
<svg xmlns:rdf="http://www.w3.org/1999/02/22-rdf-syntax-ns#" xmlns="http://www.w3.org/2000/svg" height="45" width="45" version="1.1" xmlns:cc="http://creativecommons.org/ns#" xmlns:dc="http://purl.org/dc/elements/1.1/">
<metadata>
<rdf:RDF>
<cc:Work rdf:about="">
<dc:format>image/svg+xml</dc:format>
<dc:type rdf:resource="http://purl.org/dc/dcmitype/StillImage"/>
<dc:title/>
</cc:Work>
</rdf:RDF>
</metadata>
<path d="m4.5e-8 22.5v-22.5h45v45h-45z" fill-opacity=".19608"/>
<path d="m20.026 9.293 1 17 3 0.24414 1-16.244zm2.4648 21.148c-0.37333 0-0.72216 0.06898-1.0488 0.20898-0.32667 0.14-0.60651 0.32721-0.83984 0.56055-0.23333 0.23333-0.42055 0.51318-0.56055 0.83984-0.12833 0.32667-0.19336 0.66958-0.19336 1.0312 0 0.37333 0.06503 0.72412 0.19336 1.0508 0.14 0.315 0.32722 0.58893 0.56055 0.82226s0.51318 0.41464 0.83984 0.54297c0.32667 0.14 0.6755 0.20898 1.0488 0.20898 0.37333 0.000001 0.7182-0.06898 1.0332-0.20898 0.32667-0.12833 0.60651-0.30964 0.83984-0.54297 0.245-0.23333 0.43812-0.50726 0.57812-0.82226 0.14-0.32667 0.20898-0.67745 0.20898-1.0508 0-0.36167-0.06898-0.70458-0.20898-1.0312-0.14-0.32667-0.33312-0.60651-0.57812-0.83984-0.23333-0.23333-0.51318-0.42055-0.83984-0.56055-0.315-0.14-0.65987-0.20898-1.0332-0.20898z" fill="#fff"/>
</svg>
