<?xml version="1.0" encoding="UTF-8"?>
<!-- Created with Inkscape (http://www.inkscape.org/) -->
<svg width="28" height="476" version="1.1" xmlns="http://www.w3.org/2000/svg" xmlns:cc="http://creativecommons.org/ns#" xmlns:dc="http://purl.org/dc/elements/1.1/" xmlns:rdf="http://www.w3.org/1999/02/22-rdf-syntax-ns#">
<metadata>
<rdf:RDF>
<cc:Work rdf:about="">
<dc:format>image/svg+xml</dc:format>
<dc:type rdf:resource="http://purl.org/dc/dcmitype/StillImage"/>
<dc:title/>
</cc:Work>
</rdf:RDF>
</metadata>
<g fill="#808080">
<path d="m13.997 90c-3.0776-0.04332-6.0609 1.8815-7.2937 4.7012-1.3372 2.888-0.73018 6.5431 1.4991 8.8218 2.1232 2.2856 5.6359 3.0871 8.55 1.991 2.9582-1.0404 5.1175-3.9671 5.2322-7.1022 0.19702-3.0471-1.5366-6.1034-4.2546-7.4946-1.145-0.60472-2.4388-0.91921-3.7331-0.91709zm0.04036 1.0272c-0.36291-0.05329-1.3329 0.29735-1.2624 0.18971 0.37394-0.23995 0.84359-0.14838 1.2624-0.18971zm-1.5742 0.14272c0.37524 0.11145-0.97714 0.37021-0.26269 0.32098-0.89644 0.57421 0.75694-0.1043 1.103-0.11207 0.53066-0.07369 1.6114 0.04149 1.7137 0.30382-0.26226 0.35478 1.0874 0.2086 1.0149 0.50222 0.38172-0.05752 0.97338 0.22239 0.21822 0.04794-0.41653 0.21263 0.54107 0.04374 0.3698 0.45708-4.76e-4 0.28593 0.72275 0.94495 0.2027 0.80089 0.0031-0.61237-1.0679 0.14947-0.46451 0.58245 0.12703 0.35192 0.21681 1.205 0.59662 0.73051 0.60847 0.55254 0.25534-0.365-0.0979-0.5581-0.39074-0.50124 0.09998-0.37366 0.18376 0.04076 0.35146 0.04613 0.29566-0.39892 0.41851 0.10791 0.38807 0.46539-0.09232 1.0955-0.45697 0.66911 0.72136 0.46252-0.64896 1.3248 0.2565 1.5789-0.07173 0.34725-0.78509 0.50255-0.34672 1.0012 0.78177 0.51639 0.67867-0.52139 0.78625-0.96896 0.11202-0.61717 1.5647 0.049 0.68757-0.40985-0.78186-0.36416 0.57601-0.1912 0.72628 0.18057-0.03212-0.4461-0.1457-0.90936-0.37548-1.4062 0.47016 0.09853-0.20013-0.69145 0.31783-0.2103 0.76462-0.09409-0.51856 1.5123 0.40367 1.1599 0.40052-0.81158 0.73906 0.70519 0.04873 0.78474-0.01492 0.44418-0.81125 0.96624-0.95537 0.32976-0.66935 0.26879-1.3243 0.83328-1.4185 1.5695-0.38718 0.70301-0.61528 1.7102-0.15262 2.3368 0.66946 0.79842 1.4574 0.12307 2.0726-0.31983 0.26566-0.11762 0.48396 0.0251 0.42187 0.37299-0.1187 0.84768-0.12209 1.521-0.66692 2.0277-1.2335 1.1522-2.6644 1.7216-4.1103 1.8776-1.3266 0.0915-1.5695-0.0107-1.2289-0.33639 0.46199-0.44172 0.7663-0.60431 0.91886-1.0567 0.22495-0.65901-0.88604-0.70724-1.294-0.93464-0.395-0.0118-0.17938 0.15072-0.19588-0.0679-0.46084 0.14639 0.08488-0.55163-0.52489-0.6217-0.7073-0.25328-1.027-0.86782-1.7023-1.0853-0.32811-0.12322-0.26077 0.20455-0.33566-0.16363-0.42187-0.0119-0.95826 0.14476-1.1578-0.4458 0.41904-0.4817-0.66544-0.85802-0.06233-1.3231-0.26906-0.0854-0.91643 0.01-0.71294-0.62498-0.0085-0.60958 0.59019-0.85613 0.92509-0.46082 0.62119-0.0276 0.34189 1.5273 0.62635 0.49514 0.02022-0.5297 0.81708-0.33188 0.80156-0.95736-0.15025 0.48128 0.29052-0.1749 0.52524-0.13076 0.29978-0.23265 0.83155-0.35617 0.58213-0.055 0.52935 0.0484 0.03232-0.43675 0.1057-0.6221-0.86592 2e-3 0.47982-0.0706 0.78053-0.1536 0.17816-0.26949-0.277-0.75-0.2199-1.0229-0.48733 0.28933-0.1294-0.89158-0.74031-0.30693-0.10479 0.33983-0.35012 0.63231-0.63245 0.82622 0.1116-0.5775-0.45382-1.4134 0.42-1.5739 0.2106 0.03159 1.121-0.20598 0.47891-0.29564 0.11946-0.43295 0.14079-0.35063-0.26321-0.16474-0.48804-0.25121-0.26795-0.91969-0.17999-1.3515 0.36389-0.27391 0.41872-0.6561 0.02257-0.57959-0.21434-0.087-0.97125 0.13246-1.0754 0.30155 0.47735 0.37584-0.55606 1.0888-0.8755 1.4819-0.26538 0.68696-1.1063 0.75428-1.3305 1.505-0.21017 0.57894-0.56391 1.5544-0.48306 1.9576 0.04433-0.42286 0.38359-1.5772 0.20056-0.55712-0.10765 0.81175-0.31053 1.733 0.2946 2.4099 0.51972 0.63149 0.65055 1.452 1.3346 1.9074-0.19327 0.51756-0.53711 1.1094-0.0044 1.6444 0.30287 0.57791 0.61052 0.94843 0.91687 1.524-2.0466-1.15-3.2769-3.11-3.5605-5.243-0.2996-2.538 0.7417-4.663 2.1048-5.948 0.832-0.774 1.8817-1.444 3.3077-1.769zm1.0722 0.31424c0.24777 0.12602 0.41399 0.04677 0 0zm2.0932 0.85752c0.21192 0.34572 0.67387 0.3228 0.10626 0.05467zm-3.6397 0.53292c-0.37478 0.01468 0.02864 0.36094-0.39823 0.42638 0.1689 0.89191 0.70343-0.2191 0.39823-0.42638zm0.37664 0.08332c-0.35441 0.05081 0.26466 0.36021 0 0zm1.1594 0.0486c-0.36065-0.03906-0.32742 0.33243-0.72725 0.41314 0.18442 0.10838 1.0107-0.14887 0.72725-0.41314zm1.6055 0.03646c-0.21077 0.2941 0.58485 0.16227 0 0zm-0.98414 0.04686c-0.44229 0.15994-1.2433 0.28259-0.66477 0.83322 0.21545 0.48897-0.37954 1.4478 0.36421 1.5366-0.02702-0.54142 0.80558-0.81817 0.83956-1.0914-0.46721-0.16679 0.46071-0.03001-0.18664-0.33766 0.40001-0.04968-0.10369-0.83664-0.08691-0.80244-0.15626 0.08532-0.15529-0.10989-0.26544-0.1384zm-1.6142 0.1111c-0.19744 0.03188 0.12519 0.17157 0 0zm0.16489 0.07985c-0.38182 0.26251 0.42039 0.60474 0 0zm-0.14406 0.34718c-0.66742 0.13866 0.55746 0.86213-0.31001 0.99127 0.1188 0.54778 0.448 0.4855 0.50645 0.01727 0.39333 0.23958-0.04945-1.0496-0.25517-0.89532l0.05872-0.11321zm-3.0652 0.27774c-0.26011 0.2084-0.14622 0.53094 0 0zm2.4265 0.44265c-0.46789 0.201 0.38779 0.42682 0 0zm3.3291 0.3194c-1.0005 0.27256 0.5285 0.54798 0 0zm5.0591 0.40014c0.19214 0.21212 0.16945 0.90099-0.18225 0.39922 0.09822-0.11062 0.21437-0.23567 0.18225-0.39922zm-4.0524 0.19527c-0.04142 0.41745 0.57026 0.51881 0.43219 0.95473 0.69233-0.37566-0.21174-0.65002-0.43219-0.95473zm0.06942 0.44612c-0.58138 0.47521 0.5337 0.5916 0 0zm-3.4974 0.74122c-0.49473 0.16483-0.23051 0.68093 0.12229 0.4899-0.06122-0.14053-0.30291-0.33467-0.12229-0.4899zm7.2986 0.0278c0.43311 0.10466 0.69418 0.58513 0.79371 0.60186 0.13955 0.63439-0.88172-0.57955-0.79371-0.60186zm-10.606 2.474c0.07361 0.10889 0.93988 1.1392 0.43205 0.31644-0.1127-0.139-0.245-0.286-0.432-0.316zm0.87132 0.81586c-0.37225 0.26413 0.63734 0.43782 0.16112 0.0525z" stroke-width=".88872"/>
<path d="m17.594 147c-0.89424 0.89432-1.7885 1.7886-2.6828 2.6831 1.1353 1.1352 2.2705 2.2703 3.406 3.4056l2.6826-2.6825-3.406-3.406zm-3.8247 3.8248-6.7695 6.7695v3.4058h3.4057c2.2568-2.2565 4.5134-4.5128 6.7699-6.7695-1.1353-1.1351-2.2706-2.2706-3.4059-3.4057zm-5.6342 6.7695h1.1355v1.1352h1.1351v1.1353c-0.75657 1e-4 -1.5134 1e-4 -2.2702 3.3e-4 -8.52e-5 -0.75702-4.26e-5 -1.5138-2.554e-4 -2.2707z"/>
<path d="m14.324 62c-1.2354 1.3e-5 -2.3251 0.19845-3.3141 0.56667-0.98901 0.36823-1.869 0.91835-2.6395 1.6667-0.7597 0.7424-1.3731 1.5868-1.7733 2.5666-0.40022 0.97997-0.58923 2.0597-0.59677 3.2-0.00151 1.1403 0.1857 2.1808 0.58204 3.1667 0.39518 0.97996 0.9715 1.8636 1.7231 2.6 0.76598 0.74833 1.6579 1.2925 2.6283 1.6667 0.97662 0.373 2.0367 0.566 3.205 0.566 0.86771-3e-6 1.7253-0.11723 2.5628-0.36667 0.83734-0.24945 1.643-0.63445 2.4139-1.1333l-0.524-0.832c-0.62174 0.39792-1.2754 0.69807-1.9653 0.9-0.6839 0.20193-1.3795 0.3-2.1148 0.3-0.98222-2e-6 -1.8959-0.17105-2.7375-0.53333-0.83564-0.36228-1.5769-0.89325-2.2203-1.6-0.53227-0.59985-0.94682-1.3197-1.2374-2.1333-0.29174-0.8196-0.44108-1.6795-0.43906-2.6 0.00177-1.17 0.22743-2.2593 0.68904-3.2333 0.46767-0.974 1.1433-1.7705 2.0033-2.4 0.56518-0.40979 1.1774-0.72545 1.8601-0.93333 0.68272-0.20786 1.4301-0.29999 2.2134-0.3 0.8436 1.2e-5 1.6284 0.11724 2.3759 0.36667 0.74743 0.24945 1.4042 0.60342 1.952 1.0667 0.68317 0.57017 1.1935 1.2051 1.5214 1.8999 0.32775 0.69489 0.48984 1.4841 0.48604 2.3333-0.0018 1.0453-0.23963 1.9052-0.71328 2.6-0.46765 0.69488-1.1349 1.1684-1.9998 1.4l-0.0042-6.6334h-1.9755l-0.01035 1.1333c-0.26186-0.422-0.58042-0.742-1.0098-0.967-0.42955-0.226-0.94495-0.367-1.4867-0.367-1.1509 8e-6 -2.0537 0.38732-2.7166 1.0999-0.65816 0.70676-0.9741 1.6802-0.97787 2.9333-0.0037 1.2531 0.30812 2.2207 0.96473 2.9333 0.65662 0.71269 1.5585 1.0667 2.7094 1.0667 0.54232 1e-6 1.0236-0.10765 1.4498-0.33333 0.4322-0.22569 0.79693-0.53905 1.0634-0.96667l-0.01092 1.3001h0.29632c1.7113 1e-6 3.0326-0.45204 3.9817-1.3666 0.95517-0.91462 1.4545-2.1941 1.4616-3.8334 0.0042-1.0334-0.21082-1.9566-0.6096-2.8-0.39277-0.84335-0.99321-1.6075-1.79-2.2667-0.69153-0.58203-1.4788-1.0149-2.3597-1.3001-0.87855-0.29227-1.8448-0.43413-2.9174-0.43413zm-0.06321 5.0999c0.6086 8e-6 1.091 0.26415 1.4593 0.73333 0.37316 0.46325 0.55542 1.0672 0.55358 1.8334l-0.0033 0.66667c-0.0067 0.77208-0.18537 1.4034-0.55937 1.8667-0.37518 0.45731-0.87523 0.66667-1.4838 0.66667-0.59656 2e-6 -1.0663-0.24402-1.4329-0.76667-0.36047-0.5216-0.54356-1.2203-0.53935-2.0992 0.0041-0.87899 0.18334-1.5833 0.54698-2.1001 0.36851-0.52263 0.86136-0.79999 1.4579-0.8z" stroke-width="1.0168"/>
<path d="m15.567 35.591c-1.6008 0.95346-2.3088 2.8232-1.8577 4.5327l-7.709 4.327 2.7008 4.549 1.8072-1.014-1.555-2.619 1.5575-0.8744 1.5548 2.6186 1.8056-1.0137-1.5548-2.6186 2.5392-1.4255c1.3217 1.2582 3.3932 1.5865 5.0595 0.65099 2.0081-1.1274 2.678-3.669 1.5145-5.6285-1.1634-1.9595-3.7611-2.6649-5.7693-1.5376-0.03138 0.01761-0.0623 0.03397-0.09305 0.05224zm1.2142 1.836c0.94053-0.52801 2.1399-0.21453 2.7063 0.73949 0.56645 0.95403 0.24675 2.1221-0.69378 2.6501-0.94053 0.52801-2.1393 0.21246-2.7058-0.74157-0.56645-0.95403-0.24732-2.12 0.69322-2.648z"/>
<path d="m4.9997 293.56c-0.00495 2.2132 1.557 4.0272 3.2764 5.032 3.0785 1.7698 6.8612 1.8988 10.132 0.67592 1.5292 0.57714 3.0583 1.1543 4.5874 1.7314-0.71916-1.0678-1.4383-2.1356-2.1575-3.2033 1.5761-1.2351 2.6123-3.5039 1.9681-5.5783-0.69386-2.3114-2.7481-3.793-4.8076-4.5245-3.1669-1.1318-6.8014-0.89412-9.7485 0.82436-1.7182 1.0157-3.2499 2.8274-3.249 5.0423z"/>
<path d="m14.289 259c-2.0967-0.0556-4.2072 0.43141-6.0488 1.5059-1.7179 1.016-3.2412 2.8449-3.2402 5.0605-0.00495 2.2139 1.5525 4.0223 3.2715 5.0274 3.078 1.7704 6.8533 1.8971 10.123 0.67382 1.5289 0.57732 3.0688 1.1512 4.5977 1.7285-0.71903-1.0681-1.441-2.135-2.1602-3.2031 1.5758-1.2355 2.6187-3.4972 1.9746-5.5723-0.69374-2.3121-2.7553-3.784-4.8145-4.5156-1.1874-0.42455-2.4452-0.67167-3.7031-0.70507zm-4.7891 4.9961a1.5 1.5 0 0 1 1.5 1.5 1.5 1.5 0 0 1-1.5 1.5 1.5 1.5 0 0 1-1.5-1.5 1.5 1.5 0 0 1 1.5-1.5zm4.5 0a1.5 1.5 0 0 1 1.5 1.5 1.5 1.5 0 0 1-1.5 1.5 1.5 1.5 0 0 1-1.5-1.5 1.5 1.5 0 0 1 1.5-1.5zm4.5 0a1.5 1.5 0 0 1 1.5 1.5 1.5 1.5 0 0 1-1.5 1.5 1.5 1.5 0 0 1-1.5-1.5 1.5 1.5 0 0 1 1.5-1.5z"/>
<path d="m7.6603 175.73c-1.6158 1.2295-1.9186 3.4637-1.4759 5.3113 0.61078 2.5841 2.5871 4.5964 4.6784 6.1511 0.95092 0.67454 3.1234 1.8076 3.1372 1.8076 0.01391 0 2.1864-1.1331 3.1373-1.8076 2.0913-1.5547 4.0675-3.567 4.6784-6.1511 0.44256-1.8476 0.13985-4.0818-1.4759-5.3113-0.88805-0.72454-2.1052-0.84913-3.2024-0.63643-1.3185 0.32528-3.1372 2.3062-3.1372 2.3062s-1.8187-1.981-3.1373-2.3062c-1.1028-0.21229-2.325-0.082-3.2024 0.63643z"/>
</g>
<path d="m7.6602 203.73c-1.6158 1.2297-1.9186 3.4639-1.4759 5.3113 0.61076 2.5841 2.5871 4.5964 4.6784 6.1512 0.9509 0.67456 3.1234 1.8076 3.1372 1.8076 0.01388 0 2.1864-1.1331 3.1374-1.8076 2.0913-1.5548 4.0675-3.567 4.6784-6.1512 0.44256-1.8474 0.13986-4.0817-1.4759-5.3113-0.88804-0.72444-2.1052-0.84903-3.2024-0.63632-1.3185 0.32521-3.1372 2.3062-3.1372 2.3062s-1.8187-1.981-3.1374-2.3062c-1.1028-0.21236-2.325-0.0823-3.2024 0.63632z" fill="#ff4040"/>
<path d="m13.842 318.01c-0.05597 0.0131-0.10881 0.0249-0.16122 0.0571l-8.4104 5.1657c-0.27417 0.16812-0.34638 0.53645-0.18809 0.82766l0.88671 1.6267c0.15829 0.2912 0.50506 0.39644 0.77923 0.22832l7.2549-4.4522 7.2549 4.4522c0.27417 0.16812 0.62094 0.0629 0.77924-0.22832l0.88671-1.6267c0.15829-0.29121 0.05921-0.65954-0.21496-0.82766l-8.3835-5.1657c-0.06854-0.042-0.14129-0.0473-0.21496-0.0571-0.0816-0.0109-0.19147-0.0257-0.2687 0z" fill="#808080"/>
<path d="m14.158 353.99c0.05598-0.0131 0.10881-0.0249 0.16122-0.0571l8.4104-5.1657c0.27417-0.16813 0.34638-0.53645 0.1881-0.82766l-0.88671-1.6268c-0.15829-0.29119-0.50507-0.39644-0.77924-0.22831l-7.2549 4.4522-7.2549-4.4522c-0.27417-0.16813-0.62094-0.0629-0.77923 0.22831l-0.88671 1.6268c-0.15829 0.29121-0.059209 0.65953 0.21496 0.82766l8.3835 5.1657c0.06854 0.042 0.14129 0.0473 0.21496 0.0571 0.0816 0.0109 0.19147 0.0257 0.2687 0z" fill="#808080"/>
<path d="m13.842 374.01c-0.05597 0.0131-0.10881 0.0249-0.16122 0.0571l-8.4104 5.1657c-0.27417 0.16812-0.34638 0.53645-0.18809 0.82766l0.88671 1.6267c0.15829 0.2912 0.50506 0.39644 0.77923 0.22832l7.2549-4.4522 7.2549 4.4522c0.27417 0.16812 0.62094 0.0629 0.77924-0.22832l0.88671-1.6267c0.15829-0.29121 0.05921-0.65954-0.21496-0.82766l-8.3835-5.1657c-0.06854-0.042-0.14129-0.0473-0.21496-0.0571-0.0816-0.0109-0.19147-0.0257-0.2687 0z" fill="#0030ff"/>
<path d="m14.158 409.99c0.05598-0.0131 0.10881-0.0249 0.16122-0.0571l8.4104-5.1657c0.27417-0.16813 0.34638-0.53645 0.1881-0.82766l-0.88671-1.6268c-0.15829-0.29119-0.50507-0.39644-0.77924-0.22831l-7.2549 4.4522-7.2549-4.4522c-0.27417-0.16813-0.62094-0.0629-0.77923 0.22831l-0.88671 1.6268c-0.15829 0.29121-0.059209 0.65953 0.21496 0.82766l8.3835 5.1657c0.06854 0.042 0.14129 0.0473 0.21496 0.0571 0.0816 0.0109 0.19147 0.0257 0.2687 0z" fill="#ff0030"/>
<path d="m13.797 5.9994c-1.6992 0.1204-2.5827 0.95418-3.2674 2.103-0.63742 1.0697-0.66279 2.6106-0.17187 3.7722 0.36801 0.87451 1.1873 1.3598 1.8357 1.9755 0.70061 0.80689-0.08892 1.9654-1.0038 2.0459-0.90483 0.08104-1.7768 0.4684-2.4281 1.1315-0.3246 0.43199-0.7615 0.89697-0.7615 2.0829v2.8889h12v-2.8891c0-1.186-0.43687-1.6508-0.76156-2.0821-0.65132-0.66306-1.5242-1.0504-2.4291-1.1315-0.9149-0.08048-1.7036-1.2391-1.0029-2.0459 0.64842-0.6158 1.4677-1.1011 1.8357-1.9755 0.49092-1.1615 0.46466-2.7025-0.17278-3.7722-0.68465-1.1489-1.5672-1.9826-3.2664-2.103z" fill="#808080" stroke-width=".99998"/>
<path d="m13.507 429c-0.40504 0-0.53152 0.052-0.53152 0.3694v0.16016l0.3288 3.7019-3.2658-1.4802c-0.12658-0.0529-0.22813-0.0543-0.30408-0.0543-0.15189 0-0.22754 0.13205-0.3288 0.4495l-0.3288 0.9791c-0.050624 0.18522-0.076637 0.34497-0.076637 0.39787 0 0.13228 0.15229 0.23901 0.40544 0.2919l3.4438 0.81891-2.3288 2.8029c-0.12658 0.13227-0.178 0.23972-0.178 0.372 0 0.0794 0.10096 0.2107 0.3288 0.36942l0.78616 0.60967c0.20252 0.15872 0.32761 0.21182 0.37824 0.21182 0.10126 0 0.22754-0.10675 0.3288-0.29191l1.8492-3.2007 1.822 3.2007c0.10126 0.21162 0.20223 0.29191 0.3288 0.29191 0.07595 0 0.1782-0.0795 0.38072-0.21182l0.811-0.61c0.22784-0.15872 0.30161-0.29006 0.30161-0.36942 0-0.13228-0.07426-0.23973-0.17552-0.372l-2.3288-2.8029 3.4685-0.81891c0.25315-0.0529 0.37824-0.15902 0.37824-0.31772 0-0.0529-0.02601-0.1604-0.07664-0.37201l-0.3016-0.9791c-0.10126-0.31744-0.15407-0.4495-0.33127-0.4495-0.05063 0-0.17503 0.0271-0.30161 0.0801l-3.2658 1.4544 0.30408-3.7019v-0.16018c0-0.31742-0.12895-0.3694-0.53399-0.3694h-0.9864z" fill="#c00"/>
<path d="m7.6603 231.73c-1.6158 1.2295-1.9186 3.4637-1.4759 5.3113 0.61078 2.5841 2.5871 4.5964 4.6784 6.1511 0.95092 0.67454 3.1234 1.8076 3.1372 1.8076 0.01391 0 2.1864-1.1331 3.1373-1.8076 2.0913-1.5547 4.0675-3.567 4.6784-6.1511 0.44256-1.8476 0.13985-4.0818-1.4759-5.3113-0.88805-0.72454-2.1052-0.84913-3.2024-0.63643 0.379 2.8867-1.6266 4.5462-1.6266 4.5462l0.92851 2.0545-3.4335 3.9919 1.2414-3.9919-2.1497-2.0545s0.65709-3.5612-1.2347-4.5462c-1.1028-0.21229-2.325-0.082-3.2024 0.63643z" fill="#808080"/>
<path d="m11.84 462.47c1.182 0.67345 1.1944 0.669 1.8204 1.7392l6.7395-7.1775c0.7453-0.7598 0.58545-2.0224 0.58545-2.0224s-1.2793-0.15764-2.0604 0.6133zm-1.7278 1.4581c-0.80525 0.21566-1.2696 0.9362-1.5609 2.422-0.22661 1.156-0.56705 1.854-1.1216 2.3l-0.43003 0.34577 0.60335-8e-3c1.7704-0.0242 4.2591-1.3716 4.7371-2.5648 0.5661-1.4132-0.7526-2.8898-2.228-2.4948z" fill="#808080" stroke-width=".5"/>
<g transform="translate(-.026187 .00047876)" fill="#808080">
<path d="m10.445 118c-1.2872 0.0912-1.9559 0.72347-2.4746 1.5938-0.48288 0.81035-0.50276 1.9774-0.13086 2.8574 0.27879 0.66248 0.89943 1.0297 1.3906 1.4961 0.53075 0.61126-0.066693 1.4878-0.75977 1.5488-0.68546 0.0614-1.3464 0.35509-1.8398 0.85743-0.2459 0.32724-0.57812 0.67971-0.57812 1.5781v2.0195l7.418-4.1055c-0.25993-0.0993-0.46676-0.3228-0.74414-0.34765-0.69308-0.061-1.2906-0.93958-0.75976-1.5508 0.49121-0.4665 1.1118-0.8337 1.3906-1.4961 0.3719-0.87989 0.35203-2.0471-0.13086-2.8574-0.51866-0.87037-1.1874-1.5026-2.4746-1.5938z" stroke-width=".75754"/>
<path d="m16.332 122.4c-1.4105 0.82461-2.0343 2.4419-1.6369 3.9204l-6.7928 3.7436 2.3796 3.9344 1.5922-0.87744-1.3699-2.2649 1.3724-0.7563 1.3699 2.2649 1.5909-0.87679-1.3699-2.2649 2.2373-1.233c1.1646 1.0883 2.9898 1.3723 4.4579 0.56306 1.7694-0.9751 2.3596-3.1734 1.3344-4.8683-1.0251-1.6948-3.314-2.305-5.0835-1.3299-0.02765 0.0152-0.05491 0.0294-0.08198 0.0452zm1.0698 1.588c0.82872-0.4567 1.8855-0.18556 2.3846 0.63961 0.49912 0.82519 0.21741 1.8355-0.61131 2.2922-0.82872 0.45669-1.885 0.18376-2.3841-0.64142-0.49912-0.82518-0.21791-1.8336 0.6108-2.2904z" stroke-width="1.0151"/>
</g>
</svg>
