<?xml version="1.0" encoding="UTF-8" standalone="no"?>
<!-- Created with Inkscape (http://www.inkscape.org/) -->
<svg xmlns:rdf="http://www.w3.org/1999/02/22-rdf-syntax-ns#" xmlns="http://www.w3.org/2000/svg" height="420" width="28" version="1.1" xmlns:cc="http://creativecommons.org/ns#" xmlns:dc="http://purl.org/dc/elements/1.1/">
<metadata>
<rdf:RDF>
<cc:Work rdf:about="">
<dc:format>image/svg+xml</dc:format>
<dc:type rdf:resource="http://purl.org/dc/dcmitype/StillImage"/>
<dc:title/>
</cc:Work>
</rdf:RDF>
</metadata>
<g>
<path d="m17.594 147c-0.89424 0.89432-1.7885 1.7886-2.6828 2.6831 1.1353 1.1352 2.2705 2.2703 3.406 3.4056l2.6826-2.6825-3.406-3.406zm-3.8247 3.8248l-6.7695 6.7695v3.4058h3.4057c2.2568-2.2565 4.5134-4.5128 6.7699-6.7695-1.1353-1.1351-2.2706-2.2706-3.4059-3.4057zm-5.6342 6.7695h1.1355v1.1352h1.1351v1.1353c-0.75657 0.0001-1.5134 0.0001-2.2702 0.00033-0.0000852-0.75702-0.0000426-1.5138-0.0002554-2.2707z"/>
<g fill-opacity=".50196">
<path d="m15.724 62c-1.1948 0.000013-2.286 0.19845-3.3117 0.56667-1.0257 0.36823-1.9801 0.91835-2.8659 1.6667-0.8742 0.7424-1.6261 1.5868-2.1971 2.5666-0.57114 0.97997-0.95674 2.0597-1.1782 3.2-0.21564 1.1403-0.23 2.1808-0.031843 3.1667 0.19815 0.97996 0.58958 1.8636 1.1782 2.6 0.60028 0.74833 1.3607 1.2925 2.229 1.6667 0.8745 0.373 1.8635 0.566 2.9935 0.566 0.83922-0.000003 1.6907-0.11723 2.5475-0.36667 0.8567-0.24945 1.7082-0.63445 2.5475-1.1333l-0.35053-0.832c-0.67606 0.39792-1.3646 0.69807-2.0698 0.9-0.69937 0.20193-1.3906 0.3-2.1017 0.3-0.94997-0.000002-1.8015-0.17105-2.5475-0.53333-0.74016-0.36228-1.3574-0.89325-1.8469-1.6-0.40213-0.59985-0.66787-1.3197-0.79608-2.1333-0.12822-0.8196-0.11115-1.6795 0.063687-2.6 0.22146-1.17 0.64431-2.2593 1.2737-3.2333 0.63525-0.974 1.4383-1.7705 2.3883-2.4 0.62359-0.40979 1.275-0.72545 1.9743-0.93333 0.69935-0.20786 1.4395-0.29999 2.1971-0.3 0.8159 0.000012 1.5529 0.11724 2.229 0.36667 0.67604 0.24945 1.2448 0.60342 1.6876 1.0667 0.55365 0.57017 0.928 1.2051 1.1146 1.8999 0.18648 0.69489 0.19501 1.4841 0.03184 2.3333-0.19817 1.0453-0.5896 1.9052-1.1782 2.6-0.58281 0.69488-1.3171 1.1684-2.1971 1.4l1.2419-6.6334h-1.9106l-0.2229 1.1333c-0.174-0.422-0.422-0.742-0.795-0.967-0.373-0.226-0.845-0.367-1.369-0.367-1.1131 0.000008-2.059 0.38732-2.834 1.0999-0.7693 0.70676-1.2577 1.6802-1.4967 2.9333-0.23895 1.2531-0.11909 2.2207 0.38212 2.9333 0.5012 0.71269 1.307 1.0667 2.4201 1.0667 0.52451 0.000001 1.0102-0.10765 1.4648-0.33333 0.4604-0.22569 0.87201-0.53905 1.21-0.96667l-0.25475 1.3001h0.28659c1.6551 0.000001 3.0179-0.45204 4.1077-1.3666 1.0956-0.91462 1.8188-2.1941 2.1336-3.8334 0.19813-1.0334 0.16359-1.9566-0.06369-2.8-0.22148-0.84335-0.65868-1.6075-1.3055-2.2667-0.55951-0.58203-1.2396-1.0149-2.038-1.3001-0.79481-0.29227-1.7027-0.43413-2.7401-0.43413zm-1.019 5.0999c0.58862 0.000008 1.0056 0.26415 1.2737 0.73333 0.2739 0.46325 0.33674 1.0672 0.19106 1.8334l-0.12839 0.66667c-0.15154 0.77208-0.44287 1.4034-0.89161 1.8667-0.44876 0.45731-0.97171 0.66667-1.5603 0.66667-0.57698 0.000002-0.98546-0.24402-1.2419-0.76667-0.25067-0.5216-0.29652-1.2203-0.12737-2.0992 0.16901-0.87899 0.4747-1.5833 0.92346-2.1001 0.45457-0.52263 0.98334-0.79999 1.5603-0.8z"/>
<path d="m15.567 35.591c-1.6008 0.95346-2.3088 2.8232-1.8577 4.5327l-7.709 4.327 2.7008 4.549 1.8072-1.014-1.555-2.619 1.5575-0.8744 1.5548 2.6186 1.8056-1.0137-1.5548-2.6186 2.5392-1.4255c1.3217 1.2582 3.3932 1.5865 5.0595 0.65099 2.0081-1.1274 2.678-3.669 1.5145-5.6285-1.1634-1.9595-3.7611-2.6649-5.7693-1.5376-0.03138 0.01761-0.0623 0.03397-0.09305 0.05224zm1.2142 1.836c0.94053-0.52801 2.1399-0.21453 2.7063 0.73949 0.56645 0.95403 0.24675 2.1221-0.69378 2.6501-0.94053 0.52801-2.1393 0.21246-2.7058-0.74157-0.56645-0.95403-0.24732-2.12 0.69322-2.648z"/>
<path d="m14.297 90-0.01724 0.0018 0.01721-0.0018zm-0.25689 0.03657c-0.48117 0.04109-1.3014-0.06012-1.5329 0.34162 0.43779-0.27516 1.1082-0.27669 1.5329-0.34162zm-1.3154 0.03906-0.02008 0.0042 0.02008-0.0042zm-0.43763 0.15211c-3.3366 0.69078-6.001 3.7032-6.2489 7.082-0.32774 3.1658 1.4799 6.3989 4.3465 7.8127 0.50272 0.36524-0.25558-0.56089-0.16485-0.86815-0.56216-0.42582-1.0112-0.94706-1.3284-1.5847-0.26678-0.4814 0.038317-0.77539 0.29345-1.107 0.044408-0.72908-0.79867-0.46299-0.82139-1.2315-0.3126-0.749-0.9433-1.283-1.1692-2.085-0.0202-0.772 0.1029-1.585 0.228-2.357-0.1938 0.249-0.3315 1.554-0.3556 1.236 0.038204-0.77436 0.32751-1.4956 0.58247-2.227 0.07438-0.48256 1.0775-1.1908 0.96465-1.0071 0.25758-0.17733 0.49473-0.69338 0.68196-0.8736 0.28078-0.17922 0.54809-0.47508 0.72546-0.76969 0.29077-0.18466 0.16463-0.56051 0.35732-0.5326-0.37566-0.08981-0.30527-0.48035-0.04206-0.21391 0.25976-0.37283 0.64974-0.3115 0.80895-0.25936 0.43464-0.3957-0.05283 0.30218 0.42579-0.0655 0.53721 0.22167-0.75018 0.7812-0.27649 1.1195-0.06838 0.39549-0.29802 0.88163 0.03183 0.80557 0.1429 0.54095 0.35748 0.11289 0.65768 0.04322-0.33267 0.36467-0.16896 0.58953 0.14213 0.43345-0.15772 0.44948-0.59028 0.09099-0.7782 0.37365-0.22888-0.24105-0.13683 0.16983-0.49983 0.14558-0.56257 0.44316 0.24273 1.0272-0.04608 1.5625 0.23497 0.11673 0.23444-0.54316 0.59604-0.50328-0.04507-0.7543 0.89091-0.74445 0.61674-0.17749-0.0226 0.43844 0.5595-0.22163 0.38023 0.32119-0.0027 0.41517 0.20591 0.47364 0.30761 0.79773-0.18146 0.45014-1.3024-0.02037-1.3767 0.38637 0.27231-0.2965 0.64265 0.04449 0.38163 0.07547-0.05976 0.38494 0.58424 0.46804-0.11018 0.53972-0.32037-0.03047 0.46563-0.2582-0.04354-0.21115-0.54502 0.08956-0.77641 0.52278-0.92878 0.34581-0.1867 0.10091-0.41374 0.6171-0.27397 0.07441-0.14966 0.31161-0.09584 0.66226-0.7569 0.68116-0.18462 0.19681-0.24961 1.4463-0.39657 0.56099 0.24778-0.48185-0.57852-0.8514-0.57958-0.69876-0.53921-0.86797-1.135 0.46649-0.85203 0.99852 0.1092 0.45928 1.0038-0.27019 0.66712 0.3853-0.57263 0.50463 0.65571 0.65679 0.14292 1.3034 0.05629 0.3423 0.5964 0.54225 0.74719 0.61012 0.21527-0.31975 0.81857-0.14654 0.56638 0.1651 0.25804-0.48803 0.73836 0.43156 1.1066 0.21375 0.28549 0.52615 0.82945 0.79531 1.3829 0.99781 0.18178 0.23437 0.35175 0.42258 0.07142 0.62446 0.16552-0.14036 0.60662 0.0814 0.17775 0.13906 0.55927-0.24837 0.70517 0.24766 1.2383 0.17382 0.4621-0.006 1.3513 0.40258 0.57263 0.81045-0.35847 0.36109-0.42521 1.0967-1.1788 0.92303-0.4836 0.15536-0.65465 0.61712-1.3369 0.30172 0.75575 0.37076-1.0586-0.0867-0.07284 0.19768 2.876 0.84257 6.1722-0.10192 8.1545-2.3353 0.08798-0.63816 0.78318-1.4014 0.15781-1.913 0.18401-0.38407-0.0077-0.72716-0.32769-0.36642-0.3959-0.28211-0.74283 0.6181-1.2331 0.62159-0.51234 0.51226-0.9809-0.28816-1.407-0.37846-0.06746-0.31089-0.03601-0.88017-0.16804-1.3168 0.24558-0.7346 0.61486-1.2804 0.68146-2.019 0.47724-0.14257 0.90658-1.0512 1.4156-0.99749-0.06432 0.57027 0.88047 0.267 0.91602 0.04987-0.15417-0.54979 1.0508-0.66524 0.52475-1.3781-0.26814-0.83681-0.35365 0.64201-0.79408 0.05486-0.27743-0.49932 0.68805-1.159 0.01121-1.315-0.2593 0.18682-0.41791-0.56064-0.31004 0.10148 0.37348 0.29682-0.34548-0.05947-0.10951 0.35324 0.19138 0.37308 0.48229 0.64559 0.22007 1.0024 0.2064 0.09073 0.25306 0.15097 0.17258 0.39098-0.15867-0.19128-0.78534-0.55303-1.1768-0.42378 0.1276 0.26889 1.0243 0.28617 0.64798 0.51621-0.77216-0.50643-1.3225 0.16732-1.1351 0.92542 0.05095 0.6957-1.0277 0.62957-0.91102-0.07459-0.31335-0.41838 0.98184-0.38265 0.32852-0.88482-0.68894-0.04116 0.23745-0.61728 0.05248-1.0834 0.35211-0.14645-0.47467-0.6424-0.0693-0.56115 0.14518 0.59085 0.8566-0.12369 0.49872-0.38626-0.1047-0.20949 0.0305-0.2493-0.22217-0.47412 0.17418-0.63059-0.18029 0.47766-0.4461-0.13779-0.02751-0.38142-0.55112-0.4145-0.15823-0.03643 0.07249 0.4156 0.78733 0.60275 0.51396 1.0511-0.28322-0.25325-0.47697-0.47123-0.52112-0.03596-0.28987-0.19083-0.23699-0.30614-0.38257-0.3755 0.16702-0.36588-0.20865-0.70398-0.28858-1.1537-0.07745-0.38195 0.37424-0.33902 0.67685-0.48456 0.03056 0.2667-0.08306 0.40716 0.29655 0.34866-0.10381-0.39474-0.48977-0.50602-0.32333-0.59304-0.14123-0.29057-0.2504-0.43457-0.30674-0.70724-0.45076 0.10462-0.69206-0.22074-0.11432-0.16282 0.49085 0.14824 0.34392 0.1244 0.02767-0.07863-0.02348-0.0053-0.53903 0.15776-0.44484-0.03874-0.21881-0.14249 0.22806-0.19703-0.278-0.04741-0.22318-0.13908-1.5838-0.39943-0.739-0.4749-0.35108-0.13805-1.0311-0.4594-1.4912-0.30375-0.55082-0.17389-1.3183 0.2186-1.9717 0.34093-0.85442 0.27899 0.76399-0.44683-0.09921-0.20701-0.05541-0.182 1.0549-0.42287 0.56838-0.47905zm5.6397 4.5782h-0.0025 0.0025zm-5.5594-4.5283zm-0.31211 0.01496-0.06359 0.0133 0.06359-0.0133zm1.9505 0.31918zm-2.9662 0.0058-0.02008 0.01247 0.02008-0.01247zm1.7036 0.03076zm0.73634 0.02244c0.29669 0.01533 0.51068 0.17155 0.05529 0.0272l-0.05529-0.0272zm0.64765 0.04073zm0.06861 0.03491 0.0015 0.02739-0.0015-0.02739zm-3.4674 0.03408-0.02761 0.01164 0.02761-0.01164zm1.1079 0.0091-0.03263 0.01745 0.03263-0.01745zm-1.1556 0.0133-0.03514 0.0266 0.03514-0.0266zm4.3696 0.01413zm-4.4231 0.01247 0.0033 0.01247-0.0033-0.01247zm1.7547 0.0399zm-1.5321 0.23606zm4.1736 0.0241zm-4.7644 0.0025-0.0049 0.0382 0.0049-0.0382zm5.0196 0.03242 0.04184 0.0058-0.04184-0.0058zm-5.049 0.0066zm4.7628 0.02577zm-3.2609 0.07148 0.0089 0.01258-0.0089-0.01258zm-1.5129 0.0091zm4.7327 0.01413zm0.16149 0.02327-0.01325 0.03503 0.01325-0.03503zm0.66689 0.03325zm0.37068 0.01745-0.02845 0.01745 0.02845-0.01745zm-6.0439 0.06566zm-0.06025 0.0399zm6.1476 0.005 0.01757 0.02244-0.01757-0.02244zm0.01674 0.09226zm0.79993 0.02244zm-1.1748 0.04489c0.29795 0.13848 0.82139 0.51963 0.18418 0.20822-0.08513-0.04837-0.11431-0.14525-0.18418-0.20822zm-5.7435 0.03242zm-0.08451 0.05818zm5.3051 0.02909zm-0.03682 0.0033 0.02678 0.02327-0.02678-0.02327zm0.11631 0.03491zm-0.05104 0.0058-0.01925 0.05237 0.01925-0.05237zm-0.08451 0.01829zm-5.0247 0.05154 0.02929 0.0017-0.02929-0.0017zm5.1635 0.0058zm-5.2096 0.01zm5.1578 0.01597zm1.4183 0.000832zm-6.5417 0.01912-0.0051 0.02154 0.0051-0.02154zm5.2498 0.005-0.0083 0.01854 0.0083-0.01854zm1.0317 0.04239zm-1.1346 0.20614 0.01172 0.03907-0.01172-0.03907zm-3.1888 0.02327zm-0.43763 0.03657c0.31516 0.01206-0.11438 0.4943 0.06468 0.58182-0.10269 0.60255-0.80094-0.0094-0.41706-0.18556 0.03982 0.14744 0.40896-0.27995 0.08005-0.26449 0.05549-0.08927 0.17556-0.12015 0.27234-0.1318zm5.1729 0.0042zm-4.4725 0.02992-0.041 0.02161 0.041-0.02161zm-0.35227 0.0075zm0.41922 0.0033zm-0.08535 0.0133zm2.9304 0.000832zm0.16317 0.0042zm-3.2574 0.01745zm-0.09455 0.0133c0.06059 0.07334 0.16266 0.34246-0.12112 0.15128 0.04382-0.1115-0.10738-0.10741 0.12112-0.15128zm0.51043 0.03325zm0.79491 0.02161c0.40435 0.20218-0.66801 0.63239-0.81946 0.4645 0.12796-0.12774 0.64761-0.24607 0.49863-0.35217-0.06481-0.19629 0.23525-0.03167 0.32081-0.11232zm1.8049 0.0399c0.47612 0.20335 0.1768 0.23699 0.09957 0.18868-0.36375-0.08842-0.0152-0.08516-0.09957-0.18868zm-2.7881 0.01164zm2.9804 0.01829zm0.05857 0.0091zm-2.9813 0.01413 0.01255 0.03907-0.01255-0.03907zm1.6233 0.000832c0.14154 0.0062 0.0501 0.30352 0.4167 0.10058-0.1934 0.51926 0.52679 0.85432-0.01925 0.95755 0.19763 0.1481 0.50354 0.37702 0.03341 0.21425-0.0897 0.29235 0.52688 0.02574 0.10366 0.36749-0.37045 0.12798-0.72431 0.4684-0.81678 0.91742-0.10283 0.39052-0.60072-0.08342-0.44991-0.39282-0.1689-0.19114-0.03336-0.46991 0.02259-0.47462 0.14789-0.32894-0.07191-0.35188-0.03849-0.75225-0.0662-0.31629-0.30977-0.29518-0.26944-0.55109 0.47146-0.21912 0.72986-0.27292 1.0175-0.38651zm-1.4777 0.0266zm-0.31211 0.02992-0.03391 0.03069 0.03391-0.03069zm-2.666 0.0058-0.041 0.01662 0.041-0.01662zm0.0092 0.0133-0.083675 0.0532 0.083675-0.0532zm4.0724 0.01995 0.0251 0.0399-0.0251-0.0399zm-1.5045 0.0066 0.01506 0.01995-0.01506-0.01995zm2.9671 0.01579zm-2.9035 0.0066c0.13453 0.22317-0.23068 0.03321 0.000001-0.000001l-0.000001 0.000001zm0.2686 0.0025zm-0.40332 0.0075-0.03933 0.0266 0.03933-0.0266zm-2.5705 0.0241zm0.011715 0.0083zm2.2919 0.02577zm0.74889 0.01579zm-0.16317 0.0058c-0.05722 0.14732 0.40364 0.581-0.08798 0.27862-0.12771-0.10006 0.02446-0.19881 0.08798-0.27862zm-2.994 0.02826zm0.045186 0.0033-0.019298 0.02565 0.019298-0.02565zm2.8785 0.03158-0.0318 0.01995 0.0318-0.01995zm-0.12468 0.000832 0.03765 0.0075-0.03765-0.0075zm0.29873 0.0091-0.03598 0.02826 0.03598-0.02826zm-0.24769 0.000833zm-2.9487 0.01995zm2.63 0.02909zm0.06025 0.0075 0.03431 0.02244-0.03431-0.02244zm-2.6199 0.0066zm-0.050205 0.01zm6.9977 0.02909-0.02917 0.0104 0.02917-0.0104zm-7.1717 0.01912zm2.9604 0.05735zm4.2014 0 0.02594 0.04987-0.02594-0.04987zm-3.3137 0.000833 0.03263 0.02494-0.03263-0.02494zm-3.7511 0.0017 0.027612 0.0042-0.027612-0.0042zm5.3076 0.02826 0.0059 0.03574-0.0059-0.03574zm-1.8584 0.0058-0.02343 0.02992 0.02343-0.02992zm-3.5462 0.03491-0.031796 0.02909 0.031796-0.02909zm-0.024266 0.0033zm2.4592 0.01-0.01757 0.02826 0.01757-0.02826zm-0.35562 0.04405zm1.0049 0.01c-0.23525 0.45073 0.02964-0.05808 0.12501 0.18176 0.02385 0.17178 0.2909 0.43858 0.20978 0.55378-0.17894 0.24016 0.35758 0.41047-0.03305 0.50536-0.15262-0.30956-0.08654 0.1338-0.19876 0.29244-0.27146-0.2462-0.02127 0.41519-0.32554-0.16198-0.14627-0.29664-0.23252-0.26789 0.12961-0.36686 0.46515-0.46952-0.48339-0.63916-0.10619-0.92805l0.13116-0.05982 0.06799-0.01665h-0.000001zm-0.84595 0.08062-0.02723 0.03117 0.02723-0.03117zm0.13639 0.0017zm-2.5028 0.01995zm3.4266 0.0066zm3.8725 0.0067-0.0101 0.03825 0.0101-0.03825zm-1.6492 0.05237zm-5.741 0.0133zm-0.13555 0.07398c0.05417 0.20938-0.37899 0.6433-0.091206 0.14887-0.11994 0.10728 0.22611-0.20748 0.091207-0.14878zm3.0942 0.05652zm2.64 0.13216zm0.09204 0.03158zm-0.05188 0.02244zm-2.4835 0.0042zm-0.34892 0.0042zm0.45018 0.04987-0.04692 0.0086 0.04692-0.0086zm1.092 0.005-0.0356 0.01907 0.0356-0.01907zm-1.0761 0.04405-0.01935 0.03446 0.01935-0.03446zm-3.5604 0.04406zm-0.00669 0.005zm4.6992 0.03657zm-0.02761 0.0042-0.02761 0.02161 0.02761-0.02161zm-1.0811 0.02743-0.01841 0.0399 0.01841-0.0399zm2.3421 0.005zm-2.4693 0.02078zm-0.48197 0.02992zm0.57235 0.0133zm-0.67274 0.01912c0.40692 0.55406-0.5099 0.21071-0.02677 0.02161l0.02678-0.02161h-0.000001zm1.722 0.0042zm4.0674 0.07564zm-0.6945 0.0042-0.02259 0.03159 0.02259-0.03159zm0.97482 0.22692zm-6.1894 0.04322zm3.8649 0.005c0.56418 0.36745-0.59604 0.52873-0.33804 0.10307 0.11836 0.14558 0.21268-0.08881 0.33804-0.10307zm-3.5186 0.04156-0.0084 0.04821 0.0084-0.04821zm-0.08535 0.01zm5.9225 0.03491zm-6.0565 0.04489zm5.203 0.06234 0.02594 0.0266-0.02594-0.0266zm4.3653 0.01579c0.07783 0.40744-0.02592 0.41282-0.18576 0.61427 0.50774 0.58363 0.30947-0.10486 0.29671-0.21741 0.2127 0.08935-0.12659-0.34248-0.11094-0.39686zm-9.2972 0.0133 0.041 0.02327-0.041-0.02327zm2.2777 0.03491-0.041 0.01496 0.041-0.01496zm1.8844 0.04987 0.03578 0.02536-0.03578-0.02536zm0.44934 0.03657zm1.2677 0.0399 0.03849 0.02161-0.03849-0.02161zm-0.18074 0.03075zm-5.1502 0.03574zm5.0623 0.03076 0.02306 0.02211-0.02306-0.02211zm0.2912 0.01995zm-0.24769 0.01745zm-5.1803 0.02743zm5.2431 0.02826 0.01439 0.03826-0.01439-0.03826zm-1.0961 0.02161zm1.02 0.01247zm-5.3971 0.0075zm4.3554 0.0532c0.26862 0.38441 1.2683 0.60189 0.487 1.0746-0.0037-0.25149 0.11785-0.19599-0.12746-0.28836 0.22024-0.5104-0.56581-0.26164-0.35953-0.78622zm-4.1594 0.03574zm4.0206 0.05569zm5.136 0.07481 0.02259 0.05486-0.02259-0.05486zm-5.0949 0.01496zm-5.2406 0.005zm2.4333 0.0066-0.03682 0.01829 0.03682-0.01829zm2.7773 0.0066-0.02845 0.01745 0.02845-0.01745zm-2.7119 0.07481-0.02008 0.02577 0.02008-0.02577zm3.803 0.01164-0.02259 0.02743 0.02259-0.02743zm-0.93801 0.0133zm-2.7947 0.0033 0.04017 0.02327-0.04017-0.02327zm7.5382 0.01496 0.01841 0.0133-0.01841-0.0133zm-4.71 0.02494-0.01004 0.02909 0.01004-0.02909zm-9.1356 0.03574 0.0008378 0.03325-0.0008378-0.03325zm9.1248 0.000832-0.01506 0.04405 0.01506-0.04405zm0.06443 0.01662zm-5.8298 0.07481zm5.7953 0.03159c0.4225 0.31465-0.18382 0.77842-0.14243 0.19315 0.01023-0.10327 0.03795-0.17448 0.14243-0.19315zm-9.1691 0.02992zm12.948 0.08894zm-3.5009 0.01995-0.03514 0.02161 0.03514-0.02161zm2.7973 0.12634-0.0044 0.0423 0.0044-0.0423zm-2.4149 0.09476-0.03431 0.02161 0.03431-0.02161zm4.4826 0.005c0.0439 0.27322 0.32164 1.4417 0.04175 1.2575-0.04493-0.39538-1.3111-1.0866-0.82242-0.57259 0.41459 0.35707 1.1775 1.4335 0.99825 0.28177-0.05214-0.32632-0.12485-0.64938-0.21755-0.96669zm-2.1321 0.01164-0.03096 0.01662 0.03096-0.01662zm-0.89617 0.0083zm1.3873 0.07398zm-0.09037 0.0042-0.0067 0.04821 0.0067-0.04821zm-0.21337 0.064 0.03598 0.005-0.03598-0.005zm0.15145 0.03574zm0.1389 0.02743 0.0075 0.04073-0.0075-0.04073zm-0.53719 0.14546zm0.54222 0.0033zm-0.47779 0.05237zm-0.99908 0.0091-0.02176 0.02826 0.02176-0.02826zm1.2225 0.0083 0.02008 0.03076-0.02008-0.03076zm-7.1736 0.02494c-0.2837 0.23852 0.36221 0.59714 0.05864 0.63178-0.11486-0.07705-0.21132 0.0086-0.45275-0.26355 0.20329-0.04041 0.19438-0.31287 0.39411-0.36822zm5.8722 0.0266zm-6.6454 0.04156zm5.6363 0.02078zm-10.217 0.02078zm10.237 0.0058zm1.7505 0.03824 0.02427 0.03824-0.02427-0.03824zm-0.01673 0.10473zm-0.60664 0.01746zm-5.9702 0.0083zm-0.94136 0.2103zm7.5952 0.06733zm-7.2897 0.01829zm6.3074 0.05153-0.02845 0.01 0.02845-0.01zm3.3194 0.02826 0.01422 0.0042-0.01422-0.0042zm-3.3905 0.02826zm-11.089 0.02736zm-0.091207 0.09808-0.010878 0.03907 0.010878-0.03907zm14.587 0.10557zm-11.063 0.08312zm8.6103 0.01164-0.01128 0.03009 0.01128-0.03009zm-10.965 0.309zm0.24516 0.21445zm1.5773 0.09974-0.03765 0.02244 0.03765-0.02244zm5.3099 0.17622zm-0.11798 0.0133 0.04602 0.01413-0.04602-0.01413zm-5.9083 0.67161zm0.092043 0.06317zm0.13137 0.02992zm0.035143 0.02909zm-1.1526 0.115zm8.6913 0.03408zm-7.6939 0.03159zm-0.56397 0.0133c0.44766 0.03864 1.0005 1.1587 0.48635 0.63686 0.0771-0.304-0.7543-0.636-0.4863-0.637zm0.75141 0.01829zm7.4806 0.0067zm-8.6553 0.04904zm1.0016 0.05237zm-0.59158 0.0058zm7.9677 0.0133zm0.09288 0.02327zm-8.6413 0.12884zm1.0602 0.02826zm-1.0719 0.05569-0.026777 0.02411 0.026777-0.02411zm13.633 0.005-0.0044 0.04344 0.0044-0.04344zm-12.131 0.08312 0.032815 0.02917-0.032815-0.02917zm0.048532 0.03657zm-0.88864 0.02992zm0.97399 0.04821 0.027713 0.02283-0.027713-0.02283zm-1.5614 0.01995 0.013388 0.0025-0.013388-0.0025zm13.522 0.04738-0.01172 0.05153 0.01172-0.05153zm-12.018 0.06812zm-0.60916 0.1438zm0.60246 0.01912 0.039329 0.02743-0.039329-0.02743zm0.014225 0.03491c0.58394 0.12466 0.33396 0.55832-0.031447 0.23334-0.28684-0.20064 0.12178-0.006 0.031447-0.23334zm0.68112 0.4472zm0.12719 0.0723zm0.07949 0.0765zm0.23848 0.11471zm0.12802 0.16375zm5.1309 0.0806zm3.7695 0.0441zm-11.368 0.0216 0.010414 0.0348-0.010414-0.0348zm1.4878 0.0748zm0.08786 0.0424zm5.9409 0.0283zm-4.9804 0.0199-0.0159 0.044 0.0159-0.044zm-3.542 0.0573zm0.067776 0.0499zm3.629 0.0249 0.02176 0.0391-0.02176-0.0391zm-0.26692 0.0806-0.02427 0.0224 0.02427-0.0224zm-0.36818 0.0565 0.04602 0.0108-0.04602-0.0108zm9.1675 0.0549zm-8.6957 0.0407 0.02092 0.00082-0.02092-0.00082zm-0.06778 0.0291zm1.4426 1.4488-0.01178 0.0252 0.01178-0.0252zm-0.0979 0.0465zm-0.01255 0.0357-0.01913 0.0238 0.01913-0.0238zm0.02845 0.009-0.02845 0.0208 0.02845-0.0208zm0.88611 0.32-0.01088 0.0324 0.01088-0.0324zm0.07363 1.7189zm-2.7185 0.19699 0.02845 0.0125-0.02845-0.0125z"/>
</g>
<path d="m5 265.56c-0.00495 2.2132 1.557 4.0272 3.2764 5.032 3.0785 1.7698 6.8612 1.8988 10.132 0.67592 1.5292 0.57714 3.0583 1.1543 4.5874 1.7314-0.71916-1.0678-1.4383-2.1356-2.1575-3.2033 1.5761-1.2351 2.6123-3.5039 1.9681-5.5783-0.69386-2.3114-2.7481-3.793-4.8076-4.5245-3.1669-1.1318-6.8014-0.89412-9.7485 0.82436-1.7182 1.0157-3.2499 2.8274-3.249 5.0423z"/>
<path d="m14.289 231c-2.097-0.05-4.207 0.44-6.0488 1.51-1.7179 1.02-3.2412 2.84-3.2402 5.06-0.005 2.21 1.5525 4.02 3.2715 5.03 3.0775 1.77 6.8535 1.89 10.124 0.67 1.527 0.58 3.067 1.15 4.596 1.73-0.719-1.07-1.441-2.14-2.16-3.2 1.576-1.24 2.619-3.5 1.975-5.58-0.694-2.31-2.756-3.78-4.815-4.51-1.187-0.43-2.445-0.67-3.703-0.71zm-4.789 5a1.5 1.5 0 0 1 1.5 1.5 1.5 1.5 0 0 1 -1.5 1.5 1.5 1.5 0 0 1 -1.5 -1.5 1.5 1.5 0 0 1 1.5 -1.5zm4.5 0a1.5 1.5 0 0 1 1.5 1.5 1.5 1.5 0 0 1 -1.5 1.5 1.5 1.5 0 0 1 -1.5 -1.5 1.5 1.5 0 0 1 1.5 -1.5zm4.5 0a1.5 1.5 0 0 1 1.5 1.5 1.5 1.5 0 0 1 -1.5 1.5 1.5 1.5 0 0 1 -1.5 -1.5 1.5 1.5 0 0 1 1.5 -1.5z"/>
<path d="m7.6603 175.73c-1.6158 1.2295-1.9186 3.4637-1.4759 5.3113 0.61078 2.5841 2.5871 4.5964 4.6784 6.1511 0.95092 0.67454 3.1234 1.8076 3.1372 1.8076 0.01391 0 2.1864-1.1331 3.1373-1.8076 2.0913-1.5547 4.0675-3.567 4.6784-6.1511 0.44256-1.8476 0.13985-4.0818-1.4759-5.3113-0.88805-0.72454-2.1052-0.84913-3.2024-0.63643-1.3185 0.32528-3.1372 2.3062-3.1372 2.3062s-1.8187-1.981-3.1373-2.3062c-1.1028-0.21229-2.325-0.082-3.2024 0.63643z"/>
</g>
<path fill="#ff4040" d="m7.6603 203.73c-1.6158 1.2297-1.9186 3.4639-1.4759 5.3113 0.61076 2.5841 2.5871 4.5964 4.6784 6.1512 0.9509 0.67456 3.1234 1.8076 3.1372 1.8076 0.01388 0 2.1864-1.1331 3.1374-1.8076 2.0913-1.5548 4.0675-3.567 4.6784-6.1512 0.44256-1.8474 0.13986-4.0817-1.4759-5.3113-0.88804-0.72444-2.1052-0.84903-3.2024-0.63632-1.3185 0.32521-3.1372 2.3062-3.1372 2.3062s-1.8187-1.981-3.1374-2.3062c-1.1028-0.21236-2.325-0.0823-3.2024 0.63632z"/>
<g>
<path d="m13.842 290.01c-0.05597 0.0131-0.10881 0.0249-0.16122 0.0571l-8.4104 5.1657c-0.27417 0.16812-0.34638 0.53645-0.18809 0.82766l0.88671 1.6267c0.15829 0.2912 0.50506 0.39644 0.77923 0.22832l7.2549-4.4522 7.2549 4.4522c0.27417 0.16812 0.62094 0.0629 0.77924-0.22832l0.88671-1.6267c0.15829-0.29121 0.05921-0.65954-0.21496-0.82766l-8.3835-5.1657c-0.06854-0.042-0.14129-0.0473-0.21496-0.0571-0.0816-0.0109-0.19147-0.0257-0.2687 0z"/>
<path d="m14.158 325.99c0.05598-0.0131 0.10881-0.0249 0.16122-0.0571l8.4104-5.1657c0.27417-0.16813 0.34638-0.53645 0.1881-0.82766l-0.88671-1.6268c-0.15829-0.29119-0.50507-0.39644-0.77924-0.22831l-7.2549 4.4522-7.2549-4.4522c-0.27417-0.16813-0.62094-0.0629-0.77923 0.22831l-0.88671 1.6268c-0.15829 0.29121-0.059209 0.65953 0.21496 0.82766l8.3835 5.1657c0.06854 0.042 0.14129 0.0473 0.21496 0.0571 0.0816 0.0109 0.19147 0.0257 0.2687 0z"/>
<path fill="#0030ff" d="m13.842 346.01c-0.05597 0.0131-0.10881 0.0249-0.16122 0.0571l-8.4104 5.1657c-0.27417 0.16812-0.34638 0.53645-0.18809 0.82766l0.88671 1.6267c0.15829 0.2912 0.50506 0.39644 0.77923 0.22832l7.2549-4.4522 7.2549 4.4522c0.27417 0.16812 0.62094 0.0629 0.77924-0.22832l0.88671-1.6267c0.15829-0.29121 0.05921-0.65954-0.21496-0.82766l-8.3835-5.1657c-0.06854-0.042-0.14129-0.0473-0.21496-0.0571-0.0816-0.0109-0.19147-0.0257-0.2687 0z"/>
<path fill="#ff0030" d="m14.158 381.99c0.05598-0.0131 0.10881-0.0249 0.16122-0.0571l8.4104-5.1657c0.27417-0.16813 0.34638-0.53645 0.1881-0.82766l-0.88671-1.6268c-0.15829-0.29119-0.50507-0.39644-0.77924-0.22831l-7.2549 4.4522-7.2549-4.4522c-0.27417-0.16813-0.62094-0.0629-0.77923 0.22831l-0.88671 1.6268c-0.15829 0.29121-0.059209 0.65953 0.21496 0.82766l8.3835 5.1657c0.06854 0.042 0.14129 0.0473 0.21496 0.0571 0.0816 0.0109 0.19147 0.0257 0.2687 0z"/>
</g>
<path d="m13.797 6.0001c-1.6992 0.1204-2.5827 0.95421-3.2674 2.1031-0.63742 1.0697-0.66279 2.6107-0.17187 3.7723 0.36801 0.87454 1.1873 1.3598 1.8357 1.9756 0.70061 0.80692-0.08892 1.9655-1.0038 2.046-0.90483 0.08104-1.7768 0.46842-2.4281 1.1315-0.3246 0.432-0.7615 0.897-0.7615 2.083v2.889h12v-2.8892c0-1.186-0.43687-1.6509-0.76156-2.0822-0.65132-0.66308-1.5242-1.0504-2.4291-1.1315-0.9149-0.08048-1.7036-1.2391-1.0029-2.046 0.64842-0.61582 1.4677-1.1011 1.8357-1.9756 0.49092-1.1615 0.46466-2.7026-0.17278-3.7723-0.68465-1.1489-1.5672-1.9827-3.2664-2.1031z" fill-opacity=".50196"/>
<g transform="matrix(1.0212 0 0 1.0095 -.35473 -1.1235)">
<path d="m16.34 122.36c-1.3812 0.81718-1.9921 2.4199-1.6029 3.8851l-6.6518 3.7098 2.3302 3.8989 1.5591-0.86953-1.3415-2.2445 1.3439-0.74948 1.3415 2.2445 1.5579-0.86888-1.3415-2.2445 2.1909-1.2219c1.1404 1.0785 2.9277 1.3599 4.3654 0.55799 1.7327-0.96631 2.3106-3.1448 1.3067-4.8244-1.0038-1.6795-3.2452-2.2842-4.978-1.3179-0.02708 0.0151-0.05377 0.0291-0.08028 0.0448zm1.0476 1.5737c0.81152-0.45258 1.8464-0.18388 2.3351 0.63385 0.48876 0.81774 0.2129 1.8189-0.59862 2.2715-0.81152 0.45258-1.8459 0.18211-2.3346-0.63563-0.48876-0.81774-0.21339-1.8171 0.59812-2.2697z"/>
<path fill-opacity=".50196" d="m10.57 118c-1.2744 0.0903-1.9377 0.71644-2.4512 1.5781-0.47807 0.80227-0.4971 1.9569-0.12891 2.8281 0.27601 0.65592 0.89064 1.0205 1.377 1.4824 0.52546 0.60519-0.065806 1.4728-0.75195 1.5332-0.67863 0.0607-1.3318 0.35228-1.8203 0.8496-0.2435 0.32348-0.57227 0.67299-0.57227 1.5625v2.166h3.7227l4.9297-2.7598c-0.0272-0.10279 0.037-0.20281 0.01953-0.30664-0.10209-0.18541-0.13897-0.525-0.24219-0.66211-0.48849-0.49732-1.1436-0.78878-1.8223-0.8496-0.68617-0.0603-1.2774-0.92806-0.75195-1.5332 0.48632-0.46188 1.1009-0.8265 1.377-1.4824 0.36819-0.87115 0.34722-2.0259-0.13086-2.8281-0.513-0.86-1.175-1.49-2.449-1.58h-0.30469z"/>
</g>
<path fill="#c00" d="m13.507 401c-0.40504 0-0.53152 0.052-0.53152 0.3694v0.16016l0.3288 3.7019-3.2658-1.4802c-0.12658-0.0529-0.22813-0.0543-0.30408-0.0543-0.15189 0-0.22754 0.13205-0.3288 0.44949l-0.3288 0.9791c-0.0503 0.18-0.0763 0.34-0.0763 0.39 0 0.13228 0.15229 0.23901 0.40544 0.2919l3.4438 0.81891-2.3288 2.8029c-0.12658 0.13227-0.178 0.23972-0.178 0.372 0 0.0794 0.10096 0.2107 0.3288 0.36942l0.78616 0.60967c0.203 0.17 0.328 0.22 0.379 0.22 0.10126 0 0.22754-0.10675 0.3288-0.29191l1.8492-3.2007 1.822 3.2007c0.101 0.21 0.202 0.29 0.328 0.29 0.07595 0 0.1782-0.0795 0.38072-0.21182l0.81088-0.60967c0.22784-0.15872 0.30161-0.29006 0.30161-0.36942 0-0.13228-0.07426-0.23973-0.17552-0.372l-2.3288-2.8029 3.4685-0.81891c0.253-0.06 0.378-0.16 0.378-0.32 0-0.0529-0.02601-0.16039-0.07664-0.372l-0.3016-0.9791c-0.10126-0.31744-0.15407-0.4495-0.33127-0.4495-0.05063 0-0.17503 0.0271-0.30161 0.0801l-3.2658 1.4544 0.30408-3.7019v-0.16018c0.001-0.32-0.128-0.37-0.533-0.37h-0.9864z"/>
</svg>
